
<svg
   width="94mm"
   height="17.3mm"
   viewBox="-30 14 180 34.3"
   version="1.1"

   xmlns="http://www.w3.org/2000/svg">

  
  <g
     id="layer2">
    <path
       style="fill:#000000;stroke-width:0.0289303"
       d="m 22.089134,13.790637 c 0.013,0.021 0.064,0.026 0.3327,0.033 0.075,0 0.136,0.011 0.136,0.021 0,0.01 0.059,0.015 0.1307,0.012 0.082,0 0.1461,0.01 0.1717,0.036 0.023,0.023 0.041,0.028 0.041,0.012 0,-0.017 0.016,-0.024 0.036,-0.016 0.02,0.01 0.1581,0.02 0.3077,0.029 0.2848,0.015 0.5009,0.035 0.5009,0.045 0,0.01 0.1347,0.024 0.2768,0.03 0.1001,0 0.1298,0.015 0.1185,0.045 -0.01,0.026 0.01,0.042 0.052,0.045 0.1101,0.01 0.151,0.015 0.1963,0.032 0.024,0.01 0.091,0.032 0.1503,0.05 0.059,0.019 0.1073,0.047 0.1073,0.064 0,0.017 0.02,0.022 0.044,0.013 0.024,-0.01 0.066,-0.01 0.093,0.01 0.027,0.014 0.1111,0.056 0.1871,0.094 0.238,0.1195 0.2483,0.1262 0.2483,0.1621 0,0.019 0.023,0.034 0.05,0.032 0.081,-0.01 0.2111,0.036 0.1951,0.063 -0.019,0.031 0.058,0.096 0.1699,0.1459 0.047,0.021 0.1223,0.056 0.1669,0.079 0.044,0.023 0.099,0.041 0.1216,0.041 0.022,0 0.041,0.019 0.041,0.043 0,0.024 0.035,0.052 0.079,0.062 0.043,0.011 0.1012,0.039 0.1288,0.064 0.031,0.028 0.05,0.032 0.05,0.011 0,-0.019 0.035,0 0.079,0.049 0.043,0.046 0.1141,0.092 0.1574,0.1026 0.043,0.011 0.079,0.031 0.079,0.046 0,0.029 0.3529,0.3236 0.3872,0.3236 0.012,0 0.049,0.03 0.082,0.066 0.033,0.036 0.096,0.084 0.1392,0.1072 0.043,0.023 0.078,0.053 0.078,0.066 0,0.013 0.02,0.024 0.044,0.024 0.024,0 0.056,0.033 0.071,0.073 0.015,0.04 0.045,0.073 0.068,0.073 0.022,0 0.06,0.03 0.083,0.066 0.023,0.036 0.092,0.1184 0.1527,0.1828 0.061,0.064 0.1072,0.1268 0.1037,0.1389 0,0.012 0.012,0.022 0.034,0.022 0.022,0 0.07,0.033 0.1073,0.073 0.037,0.04 0.081,0.073 0.097,0.073 0.038,6e-4 0.4139,0.3704 0.4139,0.4075 0,0.015 0.039,0.071 0.086,0.124 0.047,0.053 0.086,0.1056 0.086,0.1173 0,0.012 0.04,0.082 0.09,0.1569 0.049,0.075 0.1233,0.2167 0.1646,0.3158 0.073,0.1758 0.2488,0.4628 0.2951,0.4823 0.013,0.01 0.023,0.043 0.023,0.083 0,0.04 0.026,0.1068 0.057,0.1477 0.032,0.041 0.057,0.098 0.057,0.1274 0,0.029 0.016,0.064 0.036,0.077 0.075,0.048 0.1288,0.1768 0.1638,0.3894 0.02,0.1203 0.068,0.2808 0.1063,0.3565 0.039,0.076 0.062,0.1514 0.052,0.1681 -0.01,0.017 0,0.03 0.012,0.03 0.017,0 0.03,0.026 0.03,0.057 0,0.031 0.013,0.065 0.029,0.075 0.016,0.01 0.022,0.03 0.014,0.044 -0.01,0.014 0,0.032 0.01,0.04 0.032,0.02 0.021,0.284 -0.021,0.5263 -0.019,0.1104 -0.03,0.2453 -0.024,0.2997 0.01,0.054 0,0.099 -0.01,0.099 -0.011,0 -0.013,0.082 0,0.1827 0.024,0.2988 0.016,1.1689 -0.012,1.2793 -0.014,0.056 -0.019,0.1856 -0.011,0.2874 0.01,0.1018 0.01,0.1917 5e-4,0.1998 -0.027,0.028 -0.026,0.8143 0,1.0186 0.015,0.1126 0.029,0.3297 0.031,0.4825 0.01,0.438 0.086,0.8187 0.1724,0.8187 0.017,0 0.023,0.019 0.014,0.043 -0.018,0.047 0.017,0.1259 0.1201,0.2728 0.051,0.073 0.081,0.091 0.1252,0.077 0.039,-0.013 0.052,-0.01 0.039,0.014 -0.012,0.019 0,0.033 0.032,0.033 0.028,3e-4 0.083,0.025 0.1215,0.055 0.038,0.03 0.087,0.048 0.1074,0.04 0.021,-0.01 0.038,6e-4 0.038,0.019 0,0.019 0.013,0.026 0.03,0.015 0.016,-0.01 0.083,0.01 0.148,0.044 0.065,0.035 0.1415,0.057 0.17,0.049 0.028,-0.01 0.1003,0 0.1597,0.014 0.2377,0.062 0.6214,0.097 1.362,0.1239 0.1702,0.01 0.3172,0.019 0.3266,0.029 0.01,0.01 0.033,0 0.052,-0.012 0.023,-0.02 0.069,-0.014 0.1426,0.017 0.059,0.025 0.1386,0.038 0.1757,0.029 0.039,-0.01 0.068,0 0.068,0.013 0,0.017 0.029,0.023 0.066,0.013 0.036,-0.01 0.1203,0 0.1864,0.025 0.066,0.023 0.1272,0.031 0.1357,0.017 0.021,-0.035 0.1199,-0.016 0.1785,0.034 0.039,0.034 0.1699,0.042 0.6785,0.041 0.3463,-7e-4 0.6506,0.01 0.676,0.021 0.025,0.012 0.055,0.013 0.066,0 0.036,-0.037 0.4569,-0.026 0.5315,0.013 0.039,0.021 0.094,0.038 0.1216,0.038 0.028,0 0.05,0.015 0.05,0.033 0,0.018 0.018,0.025 0.041,0.016 0.023,-0.01 0.1062,0.016 0.1859,0.055 0.08,0.039 0.1506,0.071 0.1575,0.071 0.01,0 0.049,0.016 0.093,0.035 0.044,0.019 0.1,0.037 0.1235,0.041 0.024,0 0.1267,0.028 0.229,0.055 0.1023,0.027 0.2363,0.061 0.2976,0.077 0.061,0.016 0.1645,0.028 0.229,0.028 0.065,-4e-4 0.214,0 0.3321,0 0.1181,0 0.2791,0 0.3578,-0.013 0.079,-0.01 0.1905,-0.01 0.2483,0.01 0.059,0.013 0.1163,0.013 0.1305,0 0.015,-0.015 0.089,-0.014 0.1779,0 0.1985,0.038 0.2674,0.038 0.243,0 -0.014,-0.023 0,-0.022 0.041,9e-4 0.033,0.018 0.1797,0.036 0.3255,0.04 0.1951,0 0.2742,0.018 0.2999,0.05 0.02,0.025 0.035,0.03 0.036,0.011 5e-4,-0.019 0.041,-0.03 0.094,-0.027 0.051,0 0.1231,0 0.1598,-0.018 0.037,-0.014 0.082,-0.015 0.1,0 0.051,0.032 0.1375,0.035 0.2611,0.01 0.067,-0.015 0.1335,-0.013 0.1646,0 0.034,0.019 0.072,0.018 0.111,0 0.044,-0.024 0.07,-0.023 0.099,0 0.023,0.02 0.055,0.024 0.077,0.01 0.047,-0.031 0.3375,-0.032 0.3375,0 0,0.013 0.074,0.016 0.1646,0.01 0.3486,-0.032 0.4087,-0.035 0.4222,-0.021 0.024,0.025 0.4273,0 0.4603,-0.026 0.017,-0.015 0.041,-0.017 0.053,-0.01 0.012,0.012 0.1005,0.024 0.1977,0.028 0.3345,0.013 0.5942,0.05 0.6805,0.098 0.047,0.026 0.067,0.025 0.083,0 0.021,-0.035 0.079,-0.032 0.3146,0.015 0.1939,0.039 0.9677,0.014 1.1951,-0.039 0.067,-0.016 0.1667,-0.018 0.2218,-0.01 0.064,0.015 0.1001,0.012 0.1001,-0.01 0,-0.017 0.035,-0.023 0.082,-0.013 0.045,0.01 0.091,0.01 0.1007,0 0.01,-0.01 0.053,-0.021 0.096,-0.023 0.11,-0.01 0.5483,-0.046 0.6481,-0.059 0.046,-0.01 0.093,-0.026 0.1051,-0.046 0.017,-0.029 0.031,-0.029 0.065,0 0.029,0.025 0.048,0.026 0.061,0 0.01,-0.017 0.066,-0.03 0.1242,-0.029 0.1388,0 0.2055,-0.01 0.2055,-0.027 0,-0.01 0.081,-0.02 0.1789,-0.023 0.5285,-0.017 0.8235,-0.035 0.9517,-0.06 0.079,-0.015 0.2462,-0.024 0.3721,-0.021 0.1479,0 0.2365,0 0.2501,-0.026 0.015,-0.024 0.021,-0.023 0.021,0 3e-4,0.022 0.04,0.036 0.1007,0.036 0.055,0 0.1001,-0.015 0.1001,-0.033 0,-0.023 0.012,-0.022 0.042,0 0.023,0.019 0.057,0.026 0.076,0.014 0.045,-0.029 0.3714,-0.038 0.4261,-0.013 0.024,0.011 0.075,0.012 0.1145,0 0.039,-0.01 0.1258,-0.01 0.1922,-3e-4 0.066,0.01 0.1307,0.01 0.1431,0 0.03,-0.029 0.3182,-0.081 0.4089,-0.073 0.039,0 0.088,-0.01 0.1074,-0.021 0.024,-0.018 0.036,-0.014 0.036,0.013 4e-4,0.034 0,0.033 0.026,-7e-4 0.025,-0.04 0.1,-0.037 0.3245,0.011 0.05,0.01 0.079,0 0.079,-0.017 0,-0.021 0.013,-0.024 0.036,-0.01 0.047,0.034 0.4782,0.029 0.503,-0.01 0.011,-0.015 0.084,-0.029 0.1625,-0.03 0.079,0 0.1937,-0.011 0.2555,-0.021 0.064,-0.011 0.1277,-0.01 0.1477,0.011 0.019,0.016 0.042,0.019 0.05,0.01 0.01,-0.014 0.1672,-0.021 0.3532,-0.015 0.186,0.01 0.3639,0.01 0.3954,0.011 0.168,0 0.5191,-0.02 0.5439,-0.036 0.033,-0.021 0.309,-0.059 0.5009,-0.069 0.4119,-0.021 0.8444,-0.059 0.8444,-0.073 0,-0.01 0.2833,-0.026 0.5725,-0.037 0.094,0 0.1876,-0.017 0.2069,-0.03 0.019,-0.013 0.059,-0.01 0.089,0.01 0.03,0.016 0.1575,0.023 0.294,0.014 0.1323,-0.01 0.2892,-0.014 0.3487,-0.012 0.059,0 0.123,-0.01 0.1412,-0.018 0.018,-0.012 0.079,-0.024 0.1351,-0.028 0.056,0 0.2117,-0.016 0.3455,-0.027 0.1338,-0.011 0.3174,-0.018 0.4079,-0.017 0.09,0 0.1646,-0.01 0.1646,-0.021 0,-0.03 0.4616,-0.025 0.5091,0 0.019,0.012 0.035,0.01 0.035,0 0,-0.014 0.074,-0.029 0.1646,-0.033 0.09,0 0.2934,-0.011 0.4508,-0.016 0.1575,-0.01 0.2863,-0.012 0.2863,-0.015 0,0 0.17,-0.01 0.3778,-0.011 0.2078,0 0.3862,-0.015 0.3965,-0.026 0.01,-0.011 0.05,-0.01 0.088,0.01 0.053,0.02 0.073,0.017 0.086,-0.016 0.012,-0.032 0.03,-0.036 0.069,-0.014 0.061,0.033 0.2966,0.056 0.5707,0.056 0.1023,0 0.2215,4e-4 0.2648,0 0.043,8e-4 0.079,-0.013 0.079,-0.03 0,-0.022 0.1156,-0.025 0.379304,-0.011 0.2086,0.011 0.3921,0.019 0.4079,0.017 0.016,0 0.1756,-0.01 0.3552,-0.018 0.1797,-0.01 0.3278,-0.017 0.3292,-0.02 0,0 0.093,-0.01 0.2029,-0.016 0.1699,-0.01 0.2601,-0.012 0.4866,-0.011 0.1124,3e-4 0.3304,-0.025 0.356,-0.041 0.017,-0.011 0.058,-0.011 0.091,0 0.033,0.011 0.1037,0.02 0.1572,0.02 0.053,0 0.097,0.013 0.097,0.03 0,0.017 0.018,0.015 0.043,-0.01 0.027,-0.023 0.087,-0.031 0.1575,-0.021 0.063,0.01 0.1142,0.01 0.1142,0 0,-0.01 0.071,-0.019 0.1574,-0.02 0.087,-4e-4 0.1574,0.01 0.1574,0.018 0,0.01 0.032,0.013 0.071,0 0.039,-0.01 0.064,-0.025 0.056,-0.038 -0.01,-0.014 0.027,-0.018 0.079,-0.01 0.052,0.01 0.1455,0.012 0.2085,0.01 0.1351,-0.01 0.327,-0.01 0.4866,0 0.063,0 0.2025,-0.01 0.3101,-0.024 0.1076,-0.017 0.2139,-0.023 0.2362,-0.014 0.022,0.01 0.04,0 0.04,-0.01 0,-0.014 0.1803,-0.023 0.4008,-0.021 0.2204,0 0.4067,-0.01 0.414,-0.017 0.01,-0.012 0.078,-0.018 0.1572,-0.014 0.079,0 0.1517,-0.01 0.1611,-0.02 0.01,-0.017 0.035,-0.013 0.062,0.01 0.031,0.027 0.048,0.028 0.056,0.01 0.01,-0.022 0.051,-0.025 0.1313,-0.01 0.066,0.012 0.185,0.017 0.2637,0.012 0.079,-0.01 0.2236,-0.011 0.322,-0.012 0.1098,-8e-4 0.1789,-0.014 0.1789,-0.033 0,-0.018 0.019,-0.024 0.043,-0.014 0.024,0.01 0.064,0.027 0.091,0.037 0.026,0.011 0.04,0.01 0.031,-0.01 -0.01,-0.016 0.1892,-0.03 0.4845,-0.035 0.2754,0 0.5511,-0.019 0.6128,-0.034 0.068,-0.016 0.1185,-0.015 0.1287,0 0.01,0.017 0.03,0.017 0.05,6e-4 0.018,-0.015 0.164,-0.025 0.3239,-0.023 0.1598,0 0.279,0 0.2647,-0.013 -0.014,-0.01 0.1125,-0.014 0.2818,-0.012 0.1693,0 0.3303,-0.01 0.3579,-0.021 0.027,-0.014 0.05,-0.015 0.05,0 0,0.013 0.032,0.025 0.071,0.027 0.039,0 0.065,-0.01 0.058,-0.019 -0.021,-0.035 0.2544,-0.022 0.2785,0.013 0.014,0.021 0.021,0.021 0.021,-6e-4 3e-4,-0.017 0.039,-0.027 0.086,-0.022 0.047,0 0.1253,0.013 0.1734,0.018 0.048,0 0.093,-3e-4 0.1,-0.012 0.01,-0.011 0.061,-0.01 0.1193,0 0.07,0.016 0.1133,0.014 0.1255,-0.01 0.013,-0.021 0.023,-0.019 0.031,0.01 0.01,0.029 0.025,0.028 0.073,0 0.05,-0.032 0.069,-0.032 0.106,-4e-4 0.025,0.021 0.045,0.026 0.045,0.011 0,-0.015 0.057,-0.03 0.1259,-0.034 0.069,0 0.1641,-0.018 0.2108,-0.032 0.048,-0.014 0.1023,-0.014 0.1246,7e-4 0.046,0.03 0.1791,0.035 0.2053,0.01 0.01,-0.01 0.1376,-0.022 0.2839,-0.026 0.3884,-0.011 0.8039,-0.046 0.8495,-0.072 0.022,-0.013 0.08,-0.014 0.1288,0 0.1412,0.03 1.2174,0 1.2756,-0.041 0.02,-0.013 0.045,-0.011 0.055,0 0.022,0.03 0.091,0.032 0.1359,0 0.017,-0.011 0.04,-0.012 0.05,0 0.055,0.056 0.3729,0.053 0.7554,-0.01 0.082,-0.013 0.1217,-0.01 0.1217,0.014 0,0.022 0.034,0.018 0.1028,-0.011 0.071,-0.03 0.1186,-0.035 0.1544,-0.016 0.037,0.02 0.061,0.016 0.086,-0.013 0.023,-0.029 0.053,-0.034 0.096,-0.018 0.034,0.013 0.091,0.013 0.1269,-7e-4 0.035,-0.014 0.1772,-0.027 0.3148,-0.03 0.1376,0 0.272,-0.016 0.2986,-0.03 0.03,-0.015 0.056,-0.013 0.067,0.01 0.013,0.021 0.032,0.02 0.06,0 0.032,-0.027 0.056,-0.027 0.1081,0 0.055,0.03 0.082,0.028 0.1528,-0.01 0.047,-0.025 0.094,-0.038 0.1034,-0.028 0.01,0.01 0.034,0 0.054,-0.014 0.021,-0.017 0.1077,-0.034 0.1939,-0.037 0.086,0 0.1934,-0.019 0.2381,-0.036 0.063,-0.023 0.087,-0.021 0.1073,0.011 0.022,0.034 0.03,0.035 0.051,0 0.018,-0.029 0.031,-0.031 0.046,-0.01 0.015,0.025 0.039,0.022 0.088,-0.011 0.062,-0.041 0.07,-0.041 0.097,0.01 0.025,0.044 0.033,0.045 0.057,0.01 0.024,-0.037 0.035,-0.035 0.083,0.01 0.033,0.03 0.06,0.039 0.066,0.021 0.01,-0.017 0.1,-0.038 0.2099,-0.046 0.1099,-0.01 0.2113,-0.027 0.2254,-0.042 0.014,-0.014 0.043,-0.019 0.065,-0.011 0.022,0.01 0.079,0 0.1282,-0.016 0.075,-0.027 0.086,-0.025 0.073,0.012 -0.012,0.031 0,0.043 0.053,0.043 0.038,0 0.075,-0.011 0.084,-0.024 0.01,-0.013 0.07,-0.022 0.1376,-0.02 0.068,0 0.1385,-0.01 0.1574,-0.022 0.019,-0.014 0.2335,-0.028 0.4767,-0.031 0.2433,0 0.4355,-0.016 0.4272,-0.03 -0.01,-0.014 0.015,-0.015 0.053,0 0.1624,0.052 0.1577,0.051 0.1113,0.018 -0.033,-0.024 -0.016,-0.031 0.071,-0.03 0.094,8e-4 0.2287,-0.018 0.2287,-0.032 0,0 0.1292,-0.01 0.2872,-0.012 0.2166,-0.01 0.3062,-0.021 0.3649,-0.061 0.043,-0.029 0.078,-0.04 0.078,-0.025 0,0.034 0.2781,0.016 0.3488,-0.023 0.039,-0.021 0.051,-0.019 0.045,0.01 0,0.021 0.01,0.037 0.021,0.037 0.2538,-0.012 0.5367,-0.057 0.5483,-0.088 0.01,-0.028 0.068,-0.035 0.2095,-0.027 0.1074,0.01 0.2062,0.013 0.2196,0.016 0.014,0 0.037,0 0.053,0 0.016,0 0.099,-0.01 0.1861,-0.01 0.087,-6e-4 0.1735,-0.014 0.1932,-0.03 0.024,-0.02 0.036,-0.019 0.036,0 0,0.021 0.026,0.016 0.072,-0.014 0.039,-0.026 0.072,-0.034 0.072,-0.017 0,0.031 0.095,0.028 0.1724,-0.01 0.024,-0.011 0.1077,-0.024 0.1861,-0.031 0.078,-0.01 0.194,-0.02 0.2569,-0.03 0.063,-0.01 0.1627,-0.019 0.2215,-0.02 0.059,-9e-4 0.1014,-0.011 0.095,-0.022 -0.014,-0.023 0.1844,-0.012 0.2076,0.011 0.01,0.01 0.032,8e-4 0.053,-0.017 0.021,-0.018 0.057,-0.025 0.081,-0.015 0.024,0.01 0.043,0 0.043,-0.01 0,-0.015 0.061,-0.035 0.136,-0.046 0.075,-0.011 0.1964,-0.037 0.2702,-0.058 0.1016,-0.029 0.1373,-0.031 0.1467,0 0.01,0.026 0.021,0.026 0.048,3e-4 0.02,-0.019 0.054,-0.027 0.075,-0.019 0.022,0.01 0.086,-0.01 0.142,-0.034 0.056,-0.027 0.1093,-0.042 0.118,-0.033 0.01,0.01 0.043,0 0.076,-0.027 0.033,-0.024 0.089,-0.043 0.125,-0.043 0.036,0 0.065,-0.015 0.065,-0.033 0,-0.02 0.031,-0.027 0.077,-0.017 0.043,0.01 0.1101,0 0.1503,-0.015 0.09,-0.037 0.2311,-0.045 0.2494,-0.015 0.01,0.012 0.029,0.013 0.047,8e-4 0.029,-0.018 0.085,-0.026 0.2914,-0.038 0.016,0 0.093,0 0.1708,0.012 0.094,0.01 0.1279,0 0.1002,-0.013 -0.023,-0.015 -0.03,-0.027 -0.016,-0.028 0.015,-2e-4 0.05,0.021 0.079,0.048 0.049,0.045 0.052,0.045 0.052,0 0,-0.039 0.011,-0.043 0.052,-0.021 0.028,0.015 0.096,0.028 0.1503,0.027 0.054,-7e-4 0.1051,0 0.113,0 0.06,0.023 0.1324,0.022 0.1611,0 0.023,-0.019 0.04,-0.019 0.052,3e-4 0.023,0.038 0.458,0.01 0.5305,-0.041 0.021,-0.013 0.081,-0.023 0.1331,-0.021 0.059,0 0.1083,-0.015 0.1314,-0.047 0.049,-0.067 0.1117,-0.079 0.088,-0.016 -0.012,0.032 -0.01,0.041 0.015,0.027 0.018,-0.012 0.035,-0.043 0.036,-0.071 0,-0.027 0.01,-0.034 0.016,-0.015 0.01,0.023 0.04,0.026 0.098,0.01 0.053,-0.015 0.084,-0.014 0.084,0 0,0.016 0.015,0.019 0.034,0.01 0.019,-0.012 0.1496,-0.025 0.2908,-0.029 0.1411,0 0.2644,-0.021 0.2739,-0.036 0.026,-0.044 0.1654,-0.071 0.1862,-0.037 0.01,0.017 0.037,0.023 0.06,0.014 0.023,-0.01 0.035,-0.028 0.026,-0.043 -0.015,-0.024 0.058,-0.039 0.1593,-0.033 0.024,0 0.081,-0.049 0.1271,-0.1124 0.054,-0.074 0.1071,-0.115 0.1481,-0.115 0.035,0 0.1022,-0.033 0.1489,-0.073 0.047,-0.04 0.1063,-0.073 0.1322,-0.073 0.082,0 0.3883,-0.3573 0.3883,-0.453 0,-0.025 0.019,-0.053 0.043,-0.063 0.024,-0.01 0.043,-0.035 0.043,-0.058 0,-0.05 0.1509,-0.2159 0.1963,-0.2159 0.018,0 0.033,-0.014 0.033,-0.031 0,-0.017 -0.013,-0.023 -0.029,-0.013 -0.061,0.039 -0.025,-0.039 0.043,-0.091 0.039,-0.03 0.072,-0.072 0.072,-0.093 0,-0.021 0.019,-0.045 0.043,-0.055 0.024,-0.01 0.043,-0.035 0.043,-0.058 0,-0.023 0.011,-0.064 0.024,-0.092 0.013,-0.028 0.055,-0.1165 0.093,-0.1969 0.038,-0.081 0.075,-0.1528 0.083,-0.1609 0.036,-0.037 0.1124,-0.2326 0.1427,-0.3651 0.018,-0.08 0.047,-0.1627 0.064,-0.1834 0.017,-0.021 0.022,-0.046 0.012,-0.057 -0.01,-0.01 -8e-4,-0.046 0.021,-0.08 0.035,-0.055 0.084,-0.2159 0.09,-0.2943 0,-0.016 0.018,-0.059 0.038,-0.096 0.02,-0.037 0.028,-0.079 0.018,-0.095 -0.01,-0.016 0,-0.029 0.013,-0.029 0.017,0 0.03,-0.017 0.03,-0.038 0,-0.021 0.026,-0.093 0.057,-0.1594 0.032,-0.066 0.057,-0.1406 0.057,-0.1646 0,-0.024 0.028,-0.063 0.062,-0.088 0.047,-0.034 0.054,-0.053 0.03,-0.083 -0.024,-0.03 -0.018,-0.048 0.024,-0.075 0.031,-0.02 0.056,-0.061 0.056,-0.092 0,-0.031 0.013,-0.065 0.029,-0.075 0.016,-0.01 0.023,-0.029 0.015,-0.042 -0.01,-0.013 0,-0.04 0.028,-0.06 0.05,-0.042 0.129,-0.1976 0.129,-0.2532 0,-0.022 0.012,-0.039 0.027,-0.039 0.015,0 0.047,-0.043 0.072,-0.096 0.025,-0.053 0.083,-0.1387 0.129,-0.1906 0.047,-0.053 0.077,-0.1129 0.068,-0.137 -0.01,-0.026 0.038,-0.099 0.1228,-0.1863 0.076,-0.079 0.143,-0.168 0.1482,-0.1979 0.015,-0.088 0.2119,-0.2735 0.2704,-0.2556 0.028,0.01 0.048,0 0.044,-0.01 -0.021,-0.078 0.1786,-0.3012 0.2474,-0.2769 0.012,0 0.037,-0.023 0.055,-0.06 0.018,-0.037 0.059,-0.068 0.09,-0.069 0.031,-7e-4 0.053,-0.017 0.049,-0.036 -0.01,-0.032 0.012,-0.04 0.068,-0.033 0.01,0 0.026,-0.01 0.036,-0.022 0.026,-0.037 0.3701,-0.214 0.4163,-0.214 0.022,0 0.07,-0.028 0.1076,-0.062 0.079,-0.072 0.267,-0.15 0.3595,-0.1496 0.035,0 0.064,-0.012 0.064,-0.026 0,-0.015 0.032,-0.021 0.07,-0.014 0.055,0.01 0.066,0 0.052,-0.034 -0.011,-0.029 -0.01,-0.039 0.014,-0.027 0.017,0.011 0.039,0.01 0.047,-0.01 0.01,-0.014 0.068,-0.026 0.1314,-0.026 0.069,0 0.1376,-0.02 0.1696,-0.05 0.038,-0.035 0.06,-0.04 0.074,-0.016 0.014,0.023 0.039,0.016 0.081,-0.024 0.039,-0.036 0.104,-0.058 0.1759,-0.06 0.063,0 0.1438,-0.01 0.1795,-0.016 0.036,-0.01 0.1227,0 0.1932,0.025 0.075,0.023 0.1351,0.028 0.1445,0.013 0.019,-0.032 0.3272,-0.024 0.3272,0.01 0,0.012 0.019,0.014 0.043,0.01 0.024,-0.01 0.043,-8e-4 0.043,0.019 0,0.027 0.01,0.028 0.04,0 0.03,-0.025 0.058,-0.025 0.1137,7e-4 0.059,0.027 0.084,0.026 0.123,-0.01 0.043,-0.036 0.047,-0.035 0.03,0.011 -0.015,0.041 -0.01,0.047 0.03,0.027 0.064,-0.032 0.088,-0.028 0.1983,0.032 0.05,0.027 0.1169,0.05 0.1479,0.05 0.031,0 0.061,0.014 0.066,0.031 0.01,0.017 0.048,0.035 0.095,0.04 0.047,0.01 0.086,0.013 0.086,0.016 0,0.01 0.02,0.01 0.2443,0.053 0.072,0.014 0.1455,0.034 0.1646,0.046 0.02,0.013 0.035,0.01 0.036,-0.016 6e-4,-0.028 0.01,-0.026 0.036,0.01 0.019,0.025 0.066,0.047 0.1038,0.05 0.038,0 0.077,0.018 0.087,0.035 0.01,0.017 0.062,0.039 0.1144,0.05 0.078,0.016 0.091,0.012 0.072,-0.021 -0.021,-0.035 -0.017,-0.035 0.024,0 0.026,0.022 0.041,0.052 0.033,0.066 -0.01,0.014 0.011,0.026 0.043,0.026 0.032,0 0.059,0.012 0.059,0.026 0,0.014 0.027,0.019 0.061,0.01 0.038,-0.01 0.07,6e-4 0.086,0.029 0.015,0.027 0.048,0.039 0.082,0.03 0.032,-0.01 0.057,0 0.057,0.016 0,0.018 0.021,0.023 0.048,0.013 0.03,-0.012 0.041,-0.01 0.029,0.012 -0.012,0.019 0.037,0.038 0.1326,0.05 0.083,0.011 0.1893,0.045 0.2358,0.076 0.046,0.031 0.1128,0.057 0.1472,0.057 0.034,0 0.071,0.013 0.081,0.029 0.01,0.016 0.035,0.029 0.056,0.029 0.021,0 0.084,0.047 0.1407,0.1045 0.075,0.077 0.1176,0.1 0.1603,0.086 0.034,-0.011 0.058,-0.01 0.058,0.012 0,0.017 0.031,0.031 0.07,0.031 0.038,0 0.078,0.013 0.088,0.029 0.01,0.016 0.041,0.029 0.069,0.029 0.028,0 0.087,0.029 0.130902,0.064 0.069,0.056 0.1046,0.068 0.225,0.08 0.014,0 0.017,0.022 0.01,0.046 -0.012,0.033 0.01,0.044 0.072,0.044 0.066,0 0.084,0.011 0.072,0.044 -0.02,0.053 0.014,0.057 0.062,0.01 0.027,-0.027 0.034,-0.024 0.034,0.015 0,0.027 0.018,0.05 0.039,0.05 0.022,0 0.055,0.02 0.075,0.044 0.019,0.024 0.049,0.035 0.065,0.025 0.016,-0.01 0.022,-0.01 0.013,0.01 -0.01,0.015 0.021,0.06 0.067,0.099 0.046,0.039 0.084,0.091 0.085,0.1152 4e-4,0.039 0,0.039 0.028,3e-4 0.022,-0.035 0.028,-0.031 0.028,0.022 2e-4,0.036 0.017,0.066 0.038,0.066 0.046,0 0.1624,0.1216 0.1624,0.169 0,0.047 0.1781,0.2403 0.2216,0.2403 0.02,0 0.036,0.021 0.036,0.047 0,0.026 0.025,0.079 0.056,0.1188 0.031,0.04 0.049,0.091 0.04,0.1143 -0.01,0.026 0,0.042 0.03,0.042 0.026,0 0.046,0.024 0.046,0.057 0,0.031 0.013,0.065 0.029,0.075 0.016,0.01 0.029,0.043 0.029,0.073 0,0.03 0.015,0.092 0.033,0.1371 0.018,0.045 0.031,0.099 0.027,0.1194 0,0.02 0.021,0.1361 0.055,0.2573 0.033,0.1212 0.055,0.2361 0.048,0.2554 -0.01,0.019 0,0.068 0.024,0.1081 0.02,0.04 0.057,0.1219 0.083,0.1815 0.026,0.06 0.059,0.1165 0.075,0.1263 0.016,0.01 0.02,0.032 0.01,0.048 -0.01,0.017 0,0.041 0.018,0.054 0.02,0.013 0.036,0.064 0.034,0.1132 0,0.05 0.01,0.097 0.023,0.106 0.014,0.01 0.019,0.033 0.011,0.054 -0.01,0.021 0.012,0.1062 0.044,0.1892 0.032,0.083 0.05,0.1507 0.041,0.1507 -0.01,0 0,0.018 0.014,0.039 0.018,0.021 0.024,0.047 0.014,0.057 -0.01,0.01 0,0.055 0.015,0.1 0.018,0.045 0.035,0.1208 0.038,0.169 0,0.048 0.017,0.1042 0.032,0.1243 0.017,0.023 0.015,0.051 0,0.076 -0.017,0.022 -0.024,0.047 -0.014,0.057 0.01,0.01 0.023,0.1206 0.029,0.2458 0.01,0.1253 0.017,0.2672 0.025,0.3154 0.01,0.048 0.02,0.2738 0.028,0.5012 0.01,0.2274 0.021,0.5234 0.028,0.6579 0.017,0.3039 0.018,0.8873 0,1.0047 -0.01,0.048 -0.02,0.1995 -0.029,0.3362 -0.028,0.4284 -0.049,0.6282 -0.068,0.6433 -0.01,0.01 -0.02,0.074 -0.023,0.1462 -0.01,0.2274 -0.044,0.4515 -0.08,0.4971 -0.019,0.024 -0.052,0.1228 -0.072,0.2193 -0.021,0.097 -0.045,0.1885 -0.054,0.2045 -0.01,0.016 -0.02,0.081 -0.025,0.1455 -0.01,0.064 -0.022,0.1294 -0.037,0.145 -0.015,0.016 -0.028,0.058 -0.028,0.094 0,0.036 -0.016,0.082 -0.036,0.1038 -0.02,0.021 -0.039,0.078 -0.044,0.1263 0,0.048 -0.027,0.1373 -0.05,0.198 -0.023,0.061 -0.042,0.1347 -0.042,0.1645 0,0.03 -0.019,0.071 -0.043,0.091 -0.024,0.02 -0.043,0.08 -0.043,0.1331 0,0.053 -0.019,0.1158 -0.042,0.1391 -0.023,0.023 -0.034,0.05 -0.025,0.059 0.027,0.028 -0.041,0.1938 -0.1186,0.2874 -0.04,0.048 -0.065,0.1 -0.057,0.1145 0.01,0.014 0,0.02 -0.022,0.012 -0.022,-0.01 -0.06,0.027 -0.091,0.087 -0.03,0.056 -0.065,0.095 -0.078,0.086 -0.014,-0.01 -0.024,0.01 -0.024,0.033 0,0.026 -0.042,0.092 -0.093,0.1448 -0.051,0.053 -0.1252,0.1429 -0.1645,0.1993 -0.039,0.056 -0.081,0.097 -0.093,0.089 -0.012,-0.01 -0.021,0.02 -0.021,0.061 0,0.041 -0.014,0.075 -0.03,0.075 -0.017,0 -0.021,-0.015 -0.01,-0.034 0.013,-0.021 0.01,-0.026 -0.013,-0.013 -0.018,0.012 -0.033,0.034 -0.033,0.051 0,0.017 -0.026,0.063 -0.057,0.1041 -0.031,0.041 -0.05,0.085 -0.041,0.1 0.01,0.014 0,0.026 -0.029,0.026 -0.025,0 -0.045,0.011 -0.045,0.025 0,0.014 -0.036,0.064 -0.081,0.1111 -0.095,0.1013 -0.1284,0.1768 -0.089,0.2014 0.016,0.01 0,0.052 -0.03,0.1005 -0.032,0.046 -0.058,0.1137 -0.058,0.1514 -2e-4,0.038 -0.012,0.088 -0.027,0.1115 -0.017,0.027 -0.016,0.056 0,0.077 0.019,0.023 0.014,0.04 -0.016,0.051 -0.024,0.01 -0.044,0.043 -0.044,0.074 0,0.031 -0.016,0.064 -0.036,0.072 -0.028,0.011 -0.027,0.015 0,0.017 0.021,0 0.028,0.017 0.017,0.036 -0.022,0.037 -0.027,0.5293 -0.01,0.5698 0.01,0.014 0.011,0.065 0.01,0.1129 0,0.048 0,0.1007 0.01,0.1166 0.01,0.016 0.013,0.072 0.01,0.1243 0,0.059 0,0.095 0.026,0.095 0.019,0 0.026,0.02 0.017,0.045 -0.01,0.026 -0.01,0.038 0.011,0.027 0.016,-0.01 0.03,0.01 0.032,0.042 0,0.033 0.01,0.071 0.01,0.084 0.01,0.044 0.1457,0.3116 0.1823,0.3509 0.02,0.021 0.036,0.049 0.036,0.061 0,0.04 0.162,0.208 0.1814,0.1882 0.01,-0.011 0.019,-7e-4 0.019,0.022 0,0.023 0.04,0.068 0.088,0.1 0.091,0.061 0.1806,0.1983 0.1496,0.23 -0.01,0.01 0.021,0.026 0.07,0.036 0.1063,0.022 0.277,0.1736 0.2484,0.221 -0.013,0.021 -0.01,0.026 0.013,0.013 0.036,-0.023 0.2242,0.1513 0.2109,0.1951 0,0.014 0.01,0.018 0.021,0.01 0.016,-0.01 0.029,0 0.029,0.012 0,0.017 0.019,0.031 0.043,0.031 0.024,0 0.043,0.011 0.043,0.024 0,0.014 0.032,0.039 0.071,0.058 0.046,0.022 0.065,0.049 0.054,0.078 -0.012,0.032 0,0.045 0.044,0.045 0.036,0 0.06,0.019 0.06,0.045 0,0.025 0.012,0.038 0.026,0.029 0.035,-0.022 0.1455,0.099 0.1833,0.2001 0.011,0.031 0.028,0.048 0.037,0.039 0.023,-0.024 0.1829,0.038 0.1829,0.071 0,0.015 0.048,0.073 0.1074,0.1283 0.059,0.055 0.1089,0.1138 0.1109,0.1301 0,0.016 0.01,0.041 0.01,0.056 0,0.014 0.035,0.034 0.073,0.044 0.038,0.01 0.078,0.044 0.088,0.077 0.01,0.032 0.03,0.051 0.045,0.042 0.015,-0.01 0.035,0 0.044,0.03 0.01,0.026 0.071,0.075 0.1358,0.1088 0.065,0.034 0.1018,0.067 0.082,0.074 -0.047,0.016 0.124,0.2413 0.1832,0.2413 0.03,0 0.035,0.013 0.016,0.048 -0.019,0.035 -0.01,0.068 0.056,0.1274 0.045,0.044 0.082,0.092 0.082,0.106 2e-4,0.014 0.052,0.092 0.1142,0.1723 0.063,0.08 0.114,0.1626 0.1142,0.1827 1e-4,0.02 0.013,0.037 0.029,0.037 0.016,0 0.029,0.019 0.029,0.043 0,0.024 0.017,0.036 0.037,0.028 0.048,-0.019 0.1462,0.098 0.1586,0.1884 0.01,0.038 0.022,0.084 0.036,0.1024 0.1117,0.1365 0.1381,0.1767 0.1703,0.2599 0.02,0.052 0.055,0.1169 0.078,0.1444 0.023,0.028 0.034,0.069 0.026,0.093 -0.01,0.024 0,0.058 0.025,0.077 0.023,0.019 0.034,0.046 0.025,0.061 -0.01,0.014 0,0.026 0.016,0.026 0.018,0 0.024,0.013 0.014,0.029 -0.01,0.016 0,0.037 0.026,0.047 0.024,0.01 0.052,0.062 0.062,0.1157 0.01,0.054 0.036,0.1137 0.058,0.1323 0.022,0.019 0.04,0.059 0.04,0.089 0,0.03 0.014,0.055 0.032,0.055 0.017,0 0.024,0.02 0.015,0.044 -0.01,0.024 -0.01,0.044 0.01,0.044 0.041,0 0.1489,0.2467 0.1597,0.3663 0.01,0.064 0.019,0.1556 0.028,0.2039 0.01,0.048 0.022,0.1272 0.028,0.1754 0.01,0.048 0.017,0.1075 0.025,0.1316 0.024,0.069 0.054,0.2711 0.051,0.3436 0,0.036 0.011,0.066 0.028,0.066 0.017,0 0.024,0.037 0.017,0.086 -0.01,0.047 -0.01,0.093 0,0.1029 0.01,0.01 0.019,0.04 0.022,0.068 0.017,0.1579 0.049,0.2869 0.1152,0.4599 0.019,0.05 0.039,0.3601 0.045,0.7164 0,0.056 0.017,0.1118 0.035,0.1234 0.024,0.016 0.023,0.038 -0.01,0.084 -0.021,0.034 -0.025,0.054 -0.01,0.045 0.04,-0.025 0.069,0.07 0.034,0.1128 -0.016,0.019 -0.02,0.044 -0.01,0.055 0.01,0.011 0.023,0.1081 0.028,0.2166 0.01,0.1906 0.031,0.4743 0.041,0.5043 0.016,0.049 0.01,0.1053 -0.016,0.1238 -0.017,0.013 -0.014,0.022 0.01,0.022 0.027,3e-4 0.036,0.069 0.033,0.2709 0,0.1488 0,0.2771 0,0.2851 0.018,0.055 0.039,0.1682 0.086,0.4645 0.023,0.1416 0.025,0.2373 0.01,0.2778 -0.015,0.034 -0.023,0.1304 -0.018,0.2142 0,0.084 0,0.1601 -0.018,0.1695 -0.015,0.01 -0.021,0.089 -0.013,0.1759 0.012,0.1344 0.01,0.1562 -0.03,0.1416 -0.031,-0.012 -0.039,0 -0.027,0.027 0.01,0.024 0,0.053 -0.014,0.064 -0.017,0.011 -0.024,0.032 -0.014,0.047 0.01,0.015 0,0.047 -0.026,0.071 -0.024,0.024 -0.038,0.071 -0.032,0.1029 0.01,0.032 0,0.051 -0.016,0.042 -0.015,-0.01 -0.027,-9e-4 -0.027,0.019 0,0.02 -0.021,0.06 -0.047,0.089 -0.033,0.038 -0.037,0.053 -0.011,0.053 0.029,0 0.029,0.01 9e-4,0.044 -0.02,0.024 -0.026,0.044 -0.014,0.044 0.012,0 0.01,0.019 -0.013,0.043 -0.019,0.023 -0.027,0.055 -0.018,0.07 0.01,0.015 0,0.043 -0.024,0.062 -0.023,0.019 -0.033,0.055 -0.024,0.08 0.01,0.026 0,0.057 -0.03,0.072 -0.026,0.015 -0.047,0.053 -0.047,0.085 0,0.032 -0.019,0.066 -0.043,0.075 -0.024,0.01 -0.043,0.036 -0.043,0.059 0,0.062 -0.088,0.188 -0.1177,0.1693 -0.014,-0.01 -0.038,0.018 -0.054,0.06 -0.016,0.042 -0.048,0.083 -0.073,0.093 -0.024,0.01 -0.041,0.039 -0.037,0.065 0,0.026 -0.018,0.075 -0.049,0.109 -0.088,0.094 -0.1438,0.1694 -0.1481,0.1987 0,0.015 -0.024,0.038 -0.049,0.053 -0.025,0.014 -0.045,0.043 -0.045,0.064 0,0.021 -0.026,0.061 -0.057,0.09 -0.031,0.029 -0.048,0.066 -0.038,0.082 0.011,0.018 -0.01,0.024 -0.043,0.014 -0.037,-0.01 -0.075,0 -0.098,0.03 -0.031,0.039 -0.03,0.042 0.01,0.021 0.027,-0.016 0.023,0 -0.012,0.038 -0.03,0.035 -0.043,0.064 -0.029,0.065 0.014,0 0,0.014 -0.041,0.029 -0.037,0.015 -0.074,0.054 -0.082,0.088 -0.01,0.034 -0.032,0.054 -0.053,0.045 -0.021,-0.01 -0.046,0.012 -0.057,0.048 -0.023,0.073 -0.1233,0.1659 -0.1815,0.1673 -0.022,5e-4 -0.033,0.01 -0.023,0.019 0.027,0.027 -0.1783,0.2202 -0.212,0.1989 -0.016,-0.01 -0.037,0.01 -0.046,0.045 -0.012,0.048 -0.022,0.054 -0.041,0.025 -0.02,-0.032 -0.024,-0.032 -0.025,-7e-4 -3e-4,0.021 -0.012,0.031 -0.027,0.021 -0.015,-0.01 -0.035,0 -0.045,0.013 -0.01,0.016 -0.044,0.03 -0.075,0.03 -0.031,0 -0.05,0.012 -0.041,0.026 0.01,0.014 -0.055,0.057 -0.1423,0.093 -0.1021,0.043 -0.1533,0.081 -0.1441,0.1052 0.01,0.021 0,0.038 -0.011,0.038 -0.014,0 -0.03,-0.015 -0.036,-0.032 -0.01,-0.018 -0.042,0 -0.081,0.043 -0.039,0.042 -0.092,0.076 -0.1183,0.076 -0.083,9e-4 -0.1352,0.033 -0.1197,0.074 0.01,0.026 0,0.038 -0.043,0.035 -0.032,0 -0.051,-0.015 -0.044,-0.028 0.01,-0.013 0,-0.023 -0.015,-0.023 -0.016,0 -0.037,0.014 -0.048,0.031 -0.01,0.017 -0.037,0.024 -0.06,0.015 -0.023,-0.01 -0.048,0 -0.056,0.022 -0.01,0.021 -0.03,0.04 -0.049,0.042 -0.1037,0.01 -0.2227,0.054 -0.217,0.079 0,0.016 -0.018,0.033 -0.049,0.038 -0.058,0.01 -0.1377,0.041 -0.2906,0.1154 -0.076,0.037 -0.1003,0.038 -0.1366,0.01 -0.037,-0.031 -0.042,-0.03 -0.029,0 0.01,0.022 -0.011,0.057 -0.042,0.077 -0.048,0.031 -0.058,0.03 -0.058,-0.01 0,-0.024 -0.013,-0.044 -0.029,-0.044 -0.016,0 -0.029,0.026 -0.029,0.058 0,0.047 -0.011,0.053 -0.064,0.033 -0.035,-0.013 -0.084,-0.014 -0.1074,0 -0.024,0.013 -0.091,0.044 -0.1493,0.07 -0.058,0.026 -0.1281,0.07 -0.1551,0.097 -0.034,0.034 -0.053,0.039 -0.061,0.015 -0.01,-0.027 -0.029,-0.027 -0.088,-3e-4 -0.042,0.019 -0.085,0.046 -0.095,0.061 -0.01,0.014 -0.052,0.026 -0.092,0.026 -0.044,0 -0.067,0.012 -0.056,0.03 0.01,0.017 0,0.021 -0.013,0.01 -0.017,-0.011 -0.078,0.01 -0.1342,0.039 -0.057,0.033 -0.140302,0.059 -0.186202,0.059 -0.046,0 -0.09,0.011 -0.099,0.025 -0.017,0.028 -0.1627,0.068 -0.2742,0.076 -0.039,0 -0.1231,0.01 -0.1861,0.013 -0.063,0 -0.098,0.014 -0.079,0.023 0.072,0.029 0.033,0.056 -0.079,0.055 -0.063,-8e-4 -0.1144,-0.01 -0.1145,-0.018 0,-0.01 -0.1429,-0.016 -0.3174,-0.014 -0.2826,0 -0.3392,-0.01 -0.5172,-0.079 -0.11,-0.045 -0.2104,-0.075 -0.2232,-0.066 -0.013,0.01 -0.086,0 -0.1626,-0.028 -0.175,-0.054 -0.1823,-0.054 -0.1823,0 0,0.036 -0.01,0.04 -0.039,0.015 -0.021,-0.018 -0.079,-0.028 -0.1288,-0.022 -0.053,0.01 -0.09,0 -0.091,-0.022 -3e-4,-0.019 -0.011,-0.016 -0.025,0.01 -0.019,0.031 -0.038,0.032 -0.085,0.01 -0.034,-0.018 -0.061,-0.025 -0.061,-0.014 0,0.01 -0.018,0 -0.04,-0.015 -0.028,-0.024 -0.046,-0.025 -0.059,0 -0.01,0.017 -0.032,0.031 -0.047,0.031 -0.016,0 -0.021,-0.013 -0.011,-0.029 0.011,-0.018 -0.01,-0.02 -0.048,0 -0.037,0.014 -0.1082,0.013 -0.165,0 -0.07,-0.02 -0.1029,-0.019 -0.1104,0 -0.01,0.018 -0.019,0.027 -0.03,0.021 -0.011,-0.01 -0.084,-0.02 -0.1622,-0.03 -0.079,-0.01 -0.1847,-0.032 -0.2356,-0.049 -0.051,-0.017 -0.1076,-0.021 -0.126,-0.01 -0.019,0.012 -0.026,0.01 -0.016,-0.01 0.01,-0.016 -0.027,-0.043 -0.081,-0.06 -0.07,-0.022 -0.099,-0.022 -0.099,0 0,0.017 -0.023,0.01 -0.052,-0.017 -0.028,-0.026 -0.1077,-0.068 -0.1764,-0.093 -0.069,-0.025 -0.1436,-0.061 -0.1665,-0.08 -0.058,-0.049 -0.2405,-0.1104 -0.271,-0.091 -0.014,0.01 -0.048,-0.01 -0.076,-0.032 -0.028,-0.026 -0.071,-0.04 -0.095,-0.03 -0.024,0.01 -0.063,0 -0.088,-0.028 -0.024,-0.025 -0.064,-0.038 -0.089,-0.028 -0.024,0.01 -0.085,-0.012 -0.1347,-0.049 -0.05,-0.036 -0.1345,-0.069 -0.1881,-0.072 -0.053,0 -0.1055,-0.014 -0.1155,-0.024 -0.01,-0.01 -0.042,-0.018 -0.07,-0.018 -0.029,0 -0.053,-0.015 -0.053,-0.033 0,-0.019 -0.03,-0.027 -0.072,-0.019 -0.039,0.01 -0.072,0 -0.072,-0.011 0,-0.014 -0.014,-0.025 -0.031,-0.025 -0.017,0 -0.082,-0.055 -0.1455,-0.1219 -0.093,-0.099 -0.1202,-0.1141 -0.1436,-0.08 -0.023,0.033 -0.026,0.032 -0.013,-0.01 0.019,-0.06 0,-0.072 -0.1094,-0.086 -0.047,-0.01 -0.1147,-0.038 -0.1513,-0.073 -0.037,-0.034 -0.089,-0.057 -0.1173,-0.049 -0.034,0.01 -0.062,-0.011 -0.085,-0.062 -0.034,-0.077 -0.1604,-0.1472 -0.2087,-0.1166 -0.015,0.01 -0.034,0 -0.044,-0.029 -0.01,-0.025 -0.041,-0.046 -0.07,-0.046 -0.029,0 -0.097,-0.04 -0.151,-0.088 -0.054,-0.048 -0.1055,-0.088 -0.115,-0.088 -0.01,0 -0.064,-0.046 -0.1203,-0.1024 -0.057,-0.056 -0.1205,-0.1023 -0.1417,-0.1023 -0.021,0 -0.046,-0.026 -0.056,-0.057 -0.011,-0.034 -0.034,-0.051 -0.059,-0.041 -0.023,0.01 -0.041,0 -0.041,-0.016 0,-0.018 -0.019,-0.032 -0.043,-0.032 -0.024,0 -0.043,-0.014 -0.043,-0.03 0,-0.017 -0.023,-0.038 -0.05,-0.049 -0.077,-0.029 -0.2066,-0.1461 -0.1853,-0.1678 0.01,-0.011 0,-0.011 -0.03,-2e-4 -0.034,0.013 -0.049,0 -0.049,-0.026 0,-0.025 -0.018,-0.056 -0.04,-0.069 -0.022,-0.013 -0.1119,-0.092 -0.1996,-0.1754 -0.088,-0.083 -0.1665,-0.1403 -0.1751,-0.1261 -0.01,0.014 -0.046,0 -0.084,-0.038 -0.1226,-0.1147 -0.1601,-0.1405 -0.2226,-0.1528 -0.034,-0.01 -0.069,-0.024 -0.078,-0.04 -0.01,-0.015 -0.053,-0.037 -0.097,-0.048 -0.044,-0.011 -0.091,-0.049 -0.1049,-0.083 -0.013,-0.034 -0.058,-0.098 -0.098,-0.1415 -0.041,-0.044 -0.071,-0.092 -0.067,-0.1068 0,-0.015 -0.01,-0.031 -0.021,-0.036 -0.045,-0.014 -0.2719,-0.296 -0.2719,-0.3372 0,-0.02 -0.029,-0.068 -0.064,-0.1051 -0.035,-0.037 -0.089,-0.1177 -0.1199,-0.1784 -0.031,-0.061 -0.086,-0.1437 -0.1227,-0.1845 -0.045,-0.05 -0.061,-0.093 -0.049,-0.132 0.013,-0.043 0,-0.062 -0.042,-0.074 -0.033,-0.01 -0.06,-0.033 -0.06,-0.053 0,-0.021 -0.019,-0.045 -0.043,-0.054 -0.024,-0.01 -0.043,-0.033 -0.043,-0.053 0,-0.02 -0.052,-0.086 -0.1165,-0.1467 -0.064,-0.061 -0.1083,-0.1243 -0.099,-0.1406 0.01,-0.016 0,-0.03 -0.027,-0.03 -0.025,0 -0.058,-0.033 -0.073,-0.074 -0.015,-0.041 -0.047,-0.082 -0.071,-0.091 -0.024,-0.01 -0.036,-0.029 -0.026,-0.045 0.01,-0.015 -0.017,-0.059 -0.057,-0.098 -0.065,-0.062 -0.089,-0.1232 -0.077,-0.1981 0,-0.013 -0.016,-0.031 -0.04,-0.04 -0.04,-0.015 -0.1857,-0.2978 -0.1857,-0.3586 0,-0.014 -0.019,-0.041 -0.043,-0.061 -0.024,-0.02 -0.043,-0.067 -0.043,-0.1043 0,-0.037 -0.023,-0.085 -0.05,-0.1065 -0.028,-0.021 -0.075,-0.085 -0.1059,-0.1406 -0.105,-0.1917 -0.2127,-0.4221 -0.2023,-0.4328 0.01,-0.01 -0.018,-0.065 -0.054,-0.1322 -0.035,-0.067 -0.077,-0.1479 -0.093,-0.1801 -0.016,-0.032 -0.057,-0.1111 -0.09,-0.1754 -0.034,-0.064 -0.097,-0.1922 -0.1406,-0.2842 -0.044,-0.092 -0.096,-0.1676 -0.1154,-0.1681 -0.02,-5e-4 -0.036,-0.02 -0.036,-0.043 0,-0.023 -0.023,-0.049 -0.051,-0.058 -0.028,-0.01 -0.076,-0.084 -0.1074,-0.1672 -0.031,-0.084 -0.078,-0.1566 -0.1058,-0.1641 -0.027,-0.01 -0.065,-0.058 -0.084,-0.1126 -0.019,-0.054 -0.045,-0.099 -0.058,-0.099 -0.013,0 -0.023,-0.02 -0.023,-0.044 0,-0.024 -0.013,-0.044 -0.029,-0.044 -0.016,0 -0.029,-0.02 -0.029,-0.044 0,-0.024 -0.01,-0.044 -0.023,-0.044 -0.05,0 -0.1486,-0.1228 -0.1486,-0.1853 0,-0.036 -0.016,-0.083 -0.036,-0.1027 -0.02,-0.02 -0.037,-0.046 -0.038,-0.057 -0.028,-0.2215 -0.054,-0.3276 -0.08,-0.3279 -0.018,-3e-4 -0.013,-0.013 0.011,-0.029 0.029,-0.019 0.031,-0.028 0.01,-0.029 -0.02,-3e-4 -0.036,-0.019 -0.036,-0.042 0,-0.023 -0.038,-0.074 -0.084,-0.1137 -0.046,-0.04 -0.075,-0.082 -0.064,-0.093 0.011,-0.011 5e-4,-0.036 -0.023,-0.054 -0.024,-0.019 -0.047,-0.093 -0.051,-0.1657 -0.01,-0.1156 -0.09,-0.322 -0.221,-0.5556 -0.023,-0.04 -0.09,-0.1783 -0.1486,-0.307 -0.1047,-0.2279 -0.1861,-0.3333 -0.2588,-0.3353 -0.02,-5e-4 -0.036,-0.015 -0.036,-0.033 0,-0.018 -0.017,-0.026 -0.037,-0.018 -0.02,0.01 -0.061,0 -0.09,-0.025 -0.029,-0.022 -0.064,-0.033 -0.077,-0.025 -0.013,0.01 -0.06,-0.012 -0.1031,-0.044 -0.075,-0.056 -0.2558,-0.086 -0.3513,-0.058 -0.026,0.01 -0.042,-0.01 -0.04,-0.034 0,-0.044 -0.082,-0.059 -0.1192,-0.021 -0.01,0.01 -0.053,0.01 -0.098,-0.01 -0.05,-0.015 -0.092,-0.012 -0.1111,0.01 -0.021,0.022 -0.043,0.02 -0.073,-0.01 -0.024,-0.02 -0.06,-0.031 -0.08,-0.023 -0.02,0.01 -0.083,-0.01 -0.1388,-0.027 -0.056,-0.022 -0.168,-0.044 -0.2487,-0.048 -0.085,0 -0.1685,-0.027 -0.1986,-0.055 -0.029,-0.026 -0.087,-0.043 -0.1318,-0.038 -0.044,0.01 -0.1213,0 -0.1718,-0.02 -0.1471,-0.047 -0.6905,-0.085 -0.7643,-0.053 -0.05,0.021 -0.3454,0.02 -0.3583,0 -0.01,-0.014 -0.032,-0.019 -0.052,-0.011 -0.02,0.01 -0.068,0 -0.1064,-0.012 -0.046,-0.017 -0.1054,-0.014 -0.1763,0.012 -0.059,0.021 -0.1132,0.027 -0.1213,0.014 -0.01,-0.013 -0.082,-0.02 -0.165,-0.015 -0.085,0.01 -0.1676,-0.01 -0.1904,-0.025 -0.024,-0.021 -0.1681,-0.036 -0.3641,-0.04 -0.1782,0 -0.37,-0.019 -0.4262,-0.035 -0.056,-0.016 -0.1333,-0.023 -0.1712,-0.016 -0.038,0.01 -0.077,-7e-4 -0.087,-0.017 -0.01,-0.016 -0.03,-0.022 -0.046,-0.013 -0.022,0.014 -0.2788,0.04 -0.4123,0.042 -0.079,0 -0.2395,-0.024 -0.2681,-0.042 -0.018,-0.011 -0.043,-0.014 -0.057,-0.01 -0.013,0.01 -0.094,-0.012 -0.1789,-0.045 -0.1284,-0.05 -0.2316,-0.062 -0.6067,-0.068 -0.2485,0 -0.4585,-0.015 -0.4665,-0.023 -0.01,-0.01 -0.062,0 -0.1206,0.01 -0.063,0.015 -0.1407,0.014 -0.1918,0 -0.047,-0.016 -0.1374,-0.027 -0.2004,-0.026 -0.063,0 -0.1788,0 -0.2576,4e-4 -0.079,0 -0.1817,0 -0.2289,0.01 -0.047,0.01 -0.099,0 -0.1155,-0.013 -0.016,-0.014 -0.074,-0.024 -0.1288,-0.024 -0.055,3e-4 -0.2087,-0.01 -0.3425,-0.015 -0.1339,-0.01 -0.356,-0.02 -0.4937,-0.024 -0.1377,0 -0.2504,-0.019 -0.2505,-0.032 0,-0.013 -0.015,-0.014 -0.033,0 -0.059,0.037 -0.4075,0.037 -0.482,-3e-4 -0.04,-0.02 -0.1687,-0.04 -0.2867,-0.044 -0.3266,-0.013 -0.4108,-0.021 -0.4629,-0.044 -0.026,-0.012 -0.074,-0.01 -0.1056,0.01 -0.038,0.021 -0.064,0.022 -0.075,0 -0.017,-0.028 -0.9678,-0.022 -1.7098,0.012 -0.1797,0.01 -0.3141,0 -0.324,-0.014 -0.01,-0.015 -0.027,-0.022 -0.039,-0.014 -0.012,0.01 -0.1564,0 -0.32,-0.014 -0.4541,-0.043 -1.2203,-0.038 -2.0865,0.011 -0.071,0 -0.1578,0.017 -0.1933,0.03 -0.037,0.013 -0.064,0.01 -0.064,-0.01 0,-0.016 -0.04,-0.019 -0.093,-0.01 -0.051,0.011 -0.1422,0.011 -0.2023,0 -0.06,-0.011 -0.161,-0.01 -0.2243,0.01 -0.072,0.016 -0.1537,0.015 -0.2179,0 -0.072,-0.02 -0.1145,-0.019 -0.1408,0 -0.027,0.023 -0.038,0.023 -0.038,-6e-4 0,-0.033 -0.3401,-0.025 -0.7872,0.017 -0.2611,0.025 -1.0191,0.022 -1.2022,0 -0.079,-0.011 -0.214,-0.018 -0.3006,-0.015 -0.086,0 -0.1767,0.01 -0.2003,0.01 -0.024,5e-4 -0.075,-0.01 -0.1145,-0.016 -0.1715,-0.041 -0.1999,-0.045 -0.2114,-0.026 -0.01,0.011 -0.068,0.018 -0.1365,0.015 -0.068,0 -0.4768,-0.013 -0.9074,-0.022 -0.4307,-0.01 -0.796,-0.025 -0.8118,-0.036 -0.016,-0.01 -0.04,0 -0.054,0.022 -0.016,0.026 -0.033,0.03 -0.047,0.011 -0.013,-0.017 -0.1498,-0.026 -0.3363,-0.022 -0.3441,0.01 -0.5395,0.01 -0.7156,-0.01 -0.2244,-0.019 -0.916,-0.01 -0.916,0.016 0,0.01 -0.5841,0.034 -0.687,0.029 -0.2675,-0.012 -0.8768,0 -1.102,0.013 -0.1338,0.01 -0.3698,0.025 -0.5245,0.033 -0.1547,0.01 -0.2922,0.021 -0.3057,0.029 -0.014,0.01 -0.032,0 -0.042,-0.013 -0.01,-0.016 -0.033,-0.023 -0.052,-0.016 -0.019,0.01 -0.1315,0.019 -0.2496,0.027 -0.1181,0.01 -0.214704,0.016 -0.214704,0.018 0,0.01 -0.2017,0.021 -0.5941,0.041 -0.2165,0.011 -0.4226,0.026 -0.4579,0.034 -0.1128,0.026 -0.2557,0.038 -0.6225,0.056 -0.4612,0.022 -0.7335,0.041 -0.8587,0.06 -0.055,0.01 -0.1903,0.019 -0.3006,0.024 -0.1102,0 -0.2196,0.018 -0.2433,0.028 -0.024,0.01 -0.079,0.01 -0.123,0 -0.044,-0.012 -0.1636,-0.015 -0.2655,-0.01 -0.102,0.01 -0.1947,0.01 -0.2061,0 -0.038,-0.032 -0.9061,0.028 -1.1016,0.077 -0.1153,0.029 -0.2338,0.04 -0.2934,0.029 -0.06,-0.011 -0.1,-0.01 -0.1,0.01 0,0.016 -0.068,0.029 -0.1503,0.029 -0.083,-4e-4 -0.3435,0.01 -0.5796,0.021 -0.4946,0.024 -0.8208,0.023 -1.2452,-0.01 -0.333,-0.023 -0.4338,-0.023 -1.4965,0 -0.4059,0.01 -0.7794,0 -0.8301,-0.01 -0.051,-0.012 -0.1296,-0.011 -0.1755,0 -0.046,0.013 -0.097,0.014 -0.1145,0 -0.038,-0.024 -0.1343,-0.01 -0.1777,0.026 -0.018,0.015 -0.05,0.021 -0.072,0.013 -0.1377,-0.049 -0.901,-0.074 -1.2416,-0.041 -0.1575,0.015 -0.4086,0.034 -0.5582,0.041 -0.2541,0.012 -0.3695,0.012 -0.6369,0 -0.059,0 -0.1073,0 -0.1073,0.013 0,0.019 0,0.019 -0.2563,0.028 -0.1015,0 -0.2281,0.025 -0.2811,0.048 -0.053,0.023 -0.122,0.033 -0.1531,0.023 -0.031,-0.01 -0.072,-0.01 -0.091,0.01 -0.019,0.015 -0.077,0.026 -0.1302,0.024 -0.053,0 -0.1018,0.01 -0.1093,0.019 -0.01,0.012 -0.024,0.016 -0.037,0.01 -0.013,-0.01 -0.1249,0 -0.2484,0.027 -0.3067,0.057 -0.4755,0.076 -0.7113,0.08 -0.1102,0 -0.3068,0.028 -0.4369,0.059 -0.1301,0.031 -0.2525,0.053 -0.272,0.049 -0.019,0 -0.08,0 -0.1355,0.015 -0.1231,0.026 -0.3,0.042 -0.6727,0.061 -0.1574,0.01 -0.3184,0.022 -0.3578,0.03 -0.039,0.01 -0.2776,0.022 -0.5295,0.03 -0.4733,0.015 -0.5222,0.019 -0.9663,0.07 -0.6091,0.07 -0.7051,0.074 -1.325,0.06 -0.1581,0 -0.3159,0 -0.3506,0.014 -0.039,0.013 -0.063,0.01 -0.063,-0.012 0,-0.022 -0.016,-0.023 -0.052,0 -0.029,0.016 -0.1165,0.034 -0.1955,0.04 -0.079,0.01 -0.1579,0.021 -0.1752,0.032 -0.017,0.011 -0.04,0.01 -0.05,-0.01 -0.01,-0.017 -0.033,-0.021 -0.051,-0.01 -0.018,0.011 -0.072,0.025 -0.1196,0.031 -0.1672,0.02 -0.6879,0 -0.6879,-0.022 0,0 -0.032,-0.011 -0.072,-0.014 -0.039,0 -0.1617,-0.016 -0.2719,-0.028 -0.1102,-0.012 -0.2133,-0.021 -0.229,-0.019 -0.3983,0.032 -0.6204,0.079 -0.6669,0.1429 -0.02,0.028 -0.06,0.047 -0.087,0.043 -0.07,-0.011 -0.3242,0.1076 -0.3034,0.1421 0.01,0.016 0.01,0.026 -0.01,0.023 -0.013,0 -0.058,0.01 -0.1002,0.027 -0.042,0.018 -0.1066,0.027 -0.1431,0.021 -0.1501,-0.026 -0.3684,-0.036 -0.38,-0.017 -0.01,0.011 -0.072,0.024 -0.1456,0.028 -0.097,0.01 -0.1523,0.026 -0.2034,0.079 -0.074,0.075 -0.1653,0.094 -0.1977,0.04 -0.01,-0.017 -0.049,-0.024 -0.086,-0.014 -0.037,0.01 -0.1028,0 -0.1472,-0.015 -0.1095,-0.043 -0.4997,-0.042 -0.5806,0 -0.039,0.022 -0.073,0.025 -0.083,0.01 -0.028,-0.044 -0.1341,-0.061 -0.187,-0.031 -0.031,0.018 -0.061,0.017 -0.083,-9e-4 -0.019,-0.016 -0.073,-0.023 -0.1202,-0.015 -0.047,0.01 -0.1374,0.016 -0.2003,0.02 -0.063,0 -0.1274,0.014 -0.1432,0.024 -0.016,0.01 -0.076,0.026 -0.1343,0.035 -0.058,0.01 -0.1604,0.036 -0.2271,0.06 -0.067,0.024 -0.131,0.037 -0.1427,0.029 -0.012,-0.01 -0.03,0 -0.039,0.016 -0.01,0.016 -0.048,0.03 -0.086,0.03 -0.095,0 -0.1581,0.029 -0.1581,0.073 0,0.021 -0.023,0.045 -0.05,0.054 -0.055,0.018 -0.1919,0.101 -0.2626,0.1596 -0.025,0.02 -0.108,0.09 -0.1847,0.1552 -0.077,0.065 -0.157,0.111 -0.1782,0.1027 -0.021,-0.01 -0.051,0.01 -0.067,0.035 -0.016,0.027 -0.029,0.041 -0.029,0.031 -5e-4,-0.011 -0.059,0.041 -0.1297,0.1144 -0.071,0.073 -0.1288,0.1227 -0.1288,0.1095 0,-0.013 -0.023,0 -0.052,0.024 -0.029,0.026 -0.096,0.063 -0.1503,0.082 -0.054,0.019 -0.1179,0.051 -0.1417,0.072 -0.024,0.021 -0.095,0.051 -0.1574,0.066 -0.063,0.016 -0.1527,0.042 -0.2,0.059 -0.2095,0.074 -0.4193,0.1255 -0.4552,0.1114 -0.022,-0.01 -0.063,0 -0.093,0.022 -0.07,0.049 -0.1819,0.078 -0.4541,0.1179 -0.079,0.012 -0.1654,0.041 -0.1927,0.066 -0.037,0.033 -0.059,0.037 -0.087,0.013 -0.021,-0.017 -0.095,-0.026 -0.1652,-0.02 -0.07,0.01 -0.1768,0 -0.2371,-0.021 -0.076,-0.023 -0.1154,-0.024 -0.1288,0 -0.011,0.017 -0.084,0.04 -0.1623,0.052 -0.079,0.012 -0.1754,0.026 -0.2147,0.033 -0.1919,0.032 -0.3023,0.035 -0.3335,0.01 -0.035,-0.03 -0.1673,-0.047 -0.5109,-0.066 -0.2278,-0.012 -0.4367,-0.062 -0.5005,-0.1193 -0.052,-0.047 -0.2985,-0.1029 -0.3691,-0.084 -0.028,0.01 -0.067,-0.01 -0.088,-0.032 -0.021,-0.025 -0.058,-0.046 -0.084,-0.046 -0.026,0 -0.09,-0.053 -0.1436,-0.117 -0.053,-0.064 -0.1178,-0.1169 -0.1431,-0.1169 -0.025,0 -0.1427,-0.086 -0.2608,-0.1906 -0.118,-0.1047 -0.2497,-0.2132 -0.2926,-0.2411 -0.043,-0.028 -0.082,-0.07 -0.086,-0.094 0,-0.024 -0.028,-0.044 -0.052,-0.044 -0.037,0 -0.1322,-0.1 -0.3826,-0.3997 -0.022,-0.027 -0.033,-0.056 -0.024,-0.066 0.01,-0.01 9e-4,-0.017 -0.018,-0.017 -0.019,0 -0.027,-0.013 -0.017,-0.029 0.01,-0.016 0,-0.029 -0.013,-0.029 -0.017,0 -0.03,-0.029 -0.03,-0.064 0,-0.072 -0.056,-0.3943 -0.08,-0.4622 -0.01,-0.024 -0.018,-0.07 -0.021,-0.1024 0,-0.032 -0.039,-0.1835 -0.08,-0.3362 -0.076,-0.2853 -0.093,-0.3575 -0.1335,-0.5848 -0.013,-0.072 -0.049,-0.1915 -0.08,-0.2646 -0.031,-0.073 -0.066,-0.1905 -0.077,-0.2607 -0.012,-0.07 -0.045,-0.1683 -0.075,-0.2179 -0.03,-0.05 -0.054,-0.1271 -0.054,-0.1723 0,-0.045 -0.032,-0.1397 -0.07,-0.2101 -0.049,-0.089 -0.06,-0.1323 -0.036,-0.1422 0.025,-0.011 0.026,-0.015 6e-4,-0.016 -0.072,0 -0.2367,-0.2143 -0.3355,-0.4266 -0.023,-0.048 -0.074,-0.1247 -0.115,-0.1696 -0.041,-0.045 -0.074,-0.095 -0.074,-0.1111 0,-0.016 -0.011,-0.022 -0.025,-0.014 -0.027,0.017 -0.1885,-0.2034 -0.1892,-0.2578 -3e-4,-0.018 -0.012,-0.035 -0.026,-0.038 -0.014,0 -0.043,-0.043 -0.065,-0.089 -0.022,-0.046 -0.081,-0.1084 -0.1302,-0.1384 -0.05,-0.03 -0.1923,-0.1576 -0.317,-0.2836 -0.1247,-0.126 -0.2382,-0.2291 -0.2523,-0.2291 -0.014,0 -0.026,-0.02 -0.026,-0.045 0,-0.024 -0.029,-0.056 -0.064,-0.071 -0.035,-0.014 -0.1026,-0.061 -0.1493,-0.1031 -0.047,-0.042 -0.1272,-0.1034 -0.1789,-0.1361 -0.052,-0.033 -0.094,-0.078 -0.094,-0.1008 0,-0.048 -0.045,-0.055 -0.072,-0.012 -0.027,0.045 -0.08,0.034 -0.062,-0.013 0.01,-0.027 0,-0.037 -0.022,-0.027 -0.034,0.013 -0.085,-0.082 -0.077,-0.1421 0,-0.012 -0.016,-0.022 -0.04,-0.022 -0.023,0 -0.059,-0.026 -0.078,-0.059 -0.02,-0.032 -0.052,-0.058 -0.073,-0.058 -0.02,0 -0.044,-0.02 -0.053,-0.044 -0.01,-0.024 -0.026,-0.038 -0.038,-0.03 -0.012,0.01 -0.057,-0.032 -0.1004,-0.088 -0.043,-0.056 -0.1022,-0.1013 -0.1306,-0.1013 -0.028,0 -0.1187,-0.056 -0.2009,-0.1243 -0.2466,-0.2051 -0.3435,-0.2609 -0.4675,-0.2694 -0.065,0 -0.1321,-0.01 -0.1493,-0.012 -0.017,0 -0.084,-0.055 -0.149,-0.1184 -0.065,-0.063 -0.1475,-0.1234 -0.1836,-0.1343 -0.1325,-0.04 -0.3242,-0.1437 -0.3609,-0.1957 -0.021,-0.029 -0.051,-0.045 -0.067,-0.035 -0.016,0.01 -0.064,-0.01 -0.1054,-0.038 -0.1122,-0.083 -0.3854,-0.139 -0.4569,-0.093 -0.059,0.038 -0.1285,0.013 -0.3347,-0.1194 -0.047,-0.03 -0.114,-0.056 -0.1485,-0.057 -0.034,0 -0.071,-0.015 -0.081,-0.032 -0.034,-0.057 -0.2315,-0.1334 -0.4084,-0.159 -0.052,-0.01 -0.1056,-0.021 -0.1199,-0.03 -0.014,-0.01 -0.1589,-0.021 -0.3213,-0.026 -0.2039,-0.01 -0.3513,-0.029 -0.4771,-0.072 -0.1001,-0.034 -0.1935,-0.055 -0.2075,-0.046 -0.014,0.01 -0.026,0.01 -0.026,-0.01 0,-0.013 -0.038,-0.025 -0.085,-0.027 -0.047,0 -0.1058,-0.021 -0.1312,-0.042 -0.025,-0.022 -0.067,-0.041 -0.094,-0.043 -0.1343,-0.011 -0.2623,-0.05 -0.2623,-0.079 0,-0.018 -0.01,-0.025 -0.018,-0.015 -0.01,0.01 -0.061,-0.015 -0.1142,-0.057 -0.053,-0.041 -0.1158,-0.068 -0.1396,-0.058 -0.024,0.01 -0.043,0.01 -0.043,0 0,-0.012 -0.032,-0.023 -0.072,-0.025 -0.04,0 -0.1072,-0.028 -0.1503,-0.058 -0.043,-0.029 -0.093,-0.05 -0.1112,-0.046 -0.037,0.01 -0.3373,-0.1518 -0.425,-0.2261 -0.032,-0.027 -0.096,-0.066 -0.1432,-0.088 -0.2393,-0.1096 -0.288,-0.1364 -0.3091,-0.17 -0.013,-0.02 -0.039,-0.037 -0.059,-0.037 -0.064,0 -0.2847,-0.1215 -0.3344,-0.1842 -0.037,-0.047 -0.081,-0.061 -0.1945,-0.061 -0.081,0 -0.1409,-0.01 -0.1343,-0.012 0.018,-0.018 -0.1449,-0.1519 -0.1849,-0.1519 -0.019,0 -0.069,-0.019 -0.1104,-0.043 -0.042,-0.024 -0.1403,-0.071 -0.2191,-0.1054 -0.289,-0.1267 -0.5648,-0.2743 -0.578,-0.3094 -0.01,-0.02 -0.051,-0.044 -0.096,-0.055 -0.045,-0.01 -0.1295,-0.051 -0.187,-0.091 -0.057,-0.04 -0.1117,-0.065 -0.1205,-0.056 -0.01,0.01 -0.047,-0.013 -0.085,-0.05 -0.038,-0.036 -0.071,-0.06 -0.074,-0.052 0,0.01 -0.063,-0.026 -0.1336,-0.074 -0.071,-0.048 -0.1771,-0.1135 -0.2362,-0.1447 -0.059,-0.031 -0.1073,-0.066 -0.1073,-0.077 0,-0.011 -0.064,-0.063 -0.1431,-0.1153 -0.079,-0.052 -0.1432,-0.1113 -0.1432,-0.1317 0,-0.02 -0.026,-0.045 -0.057,-0.055 -0.032,-0.01 -0.057,-0.028 -0.057,-0.04 0,-0.012 -0.045,-0.07 -0.1001,-0.1297 -0.055,-0.06 -0.1002,-0.1258 -0.1002,-0.1468 0,-0.021 -0.039,-0.076 -0.086,-0.1224 -0.047,-0.046 -0.086,-0.095 -0.086,-0.1088 0,-0.014 -0.046,-0.072 -0.1019,-0.1288 -0.056,-0.057 -0.1142,-0.1371 -0.1291,-0.1773 -0.015,-0.04 -0.053,-0.08 -0.084,-0.088 -0.031,-0.01 -0.057,-0.027 -0.057,-0.041 0,-0.058 -0.1229,-0.2886 -0.1536,-0.2886 -0.032,0 -0.056,-0.046 -0.1483,-0.2851 -0.026,-0.068 -0.057,-0.1243 -0.068,-0.1243 -0.011,0 -0.065,-0.089 -0.1186,-0.1974 -0.054,-0.1085 -0.1084,-0.205 -0.1208,-0.2143 -0.039,-0.03 -0.1247,-0.2115 -0.1774,-0.3778 -0.028,-0.088 -0.064,-0.1772 -0.079,-0.1973 -0.016,-0.02 -0.018,-0.037 -0.01,-0.037 0.012,0 0,-0.023 -0.021,-0.051 -0.042,-0.051 -0.085,-0.1402 -0.093,-0.1974 0,-0.033 -0.031,-0.1024 -0.09,-0.2384 -0.022,-0.051 -0.04,-0.105 -0.04,-0.1209 0,-0.034 -0.077,-0.3002 -0.1306,-0.4488 -0.021,-0.058 -0.032,-0.1122 -0.025,-0.1193 0.019,-0.02 -0.042,-0.3447 -0.087,-0.4655 -0.022,-0.059 -0.033,-0.1138 -0.024,-0.123 0.01,-0.01 0.01,-0.04 0,-0.069 -0.022,-0.055 -0.024,-0.069 -0.058,-0.4179 -0.041,-0.4267 -0.044,-0.5181 -0.044,-1.1404 3e-4,-0.3458 0.014,-0.6969 0.031,-0.7804 0.017,-0.083 0.028,-0.1689 0.024,-0.19 0,-0.021 0.021,-0.1305 0.055,-0.243 0.034,-0.1126 0.07,-0.2837 0.079,-0.3802 0.01,-0.097 0.037,-0.2198 0.061,-0.2741 0.042,-0.096 0.059,-0.157 0.064,-0.2282 0,-0.019 0.023,-0.056 0.048,-0.081 0.025,-0.026 0.039,-0.072 0.032,-0.1034 -0.01,-0.031 0,-0.054 0.013,-0.05 0.031,0.01 0.1088,-0.1967 0.1095,-0.2866 4e-4,-0.056 0.2057,-0.3392 0.2609,-0.3601 0.014,-0.01 0.026,-0.035 0.026,-0.065 0,-0.031 0.026,-0.072 0.057,-0.092 0.032,-0.02 0.057,-0.05 0.057,-0.066 0,-0.016 0.039,-0.067 0.086,-0.1124 0.047,-0.045 0.086,-0.1003 0.086,-0.1217 0,-0.021 0.026,-0.07 0.057,-0.1071 0.1627,-0.1943 0.2003,-0.2469 0.2004,-0.2801 0,-0.02 0.026,-0.053 0.057,-0.073 0.032,-0.02 0.057,-0.052 0.057,-0.07 0,-0.019 0.071,-0.1035 0.1574,-0.1887 0.087,-0.085 0.1575,-0.172 0.1575,-0.1931 0,-0.021 0.018,-0.038 0.04,-0.038 0.022,0 0.048,-0.033 0.058,-0.073 0.011,-0.046 0.057,-0.092 0.1225,-0.1243 0.06,-0.029 0.1238,-0.091 0.1498,-0.145 0.025,-0.052 0.081,-0.1091 0.1238,-0.1278 0.043,-0.019 0.079,-0.044 0.079,-0.056 0,-0.039 0.3873,-0.4226 0.4074,-0.4034 0.012,0.012 0.087,-0.055 0.2287,-0.2039 0.086,-0.09 0.1248,-0.1146 0.1415,-0.088 0.016,0.026 0.023,0.021 0.023,-0.019 3e-4,-0.031 0.01,-0.048 0.019,-0.037 0.01,0.01 0.039,0 0.064,-0.032 0.025,-0.028 0.064,-0.055 0.087,-0.06 0.023,-0.01 0.059,-0.035 0.08,-0.066 0.021,-0.031 0.051,-0.056 0.066,-0.056 0.015,0 0.062,-0.038 0.1057,-0.084 0.082,-0.088 0.4283,-0.2944 0.3918,-0.2341 -0.025,0.041 0.1422,-0.056 0.2157,-0.1258 0.029,-0.027 0.061,-0.041 0.071,-0.03 0.01,0.01 0.049,-0.017 0.086,-0.061 0.038,-0.045 0.085,-0.073 0.1079,-0.064 0.023,0.01 0.071,-0.011 0.108,-0.043 0.037,-0.033 0.09,-0.06 0.1176,-0.06 0.028,0 0.057,-0.016 0.065,-0.036 0.011,-0.028 0.022,-0.026 0.045,0.01 0.026,0.037 0.034,0.034 0.048,-0.022 0.01,-0.036 0.039,-0.068 0.064,-0.071 0.026,0 0.066,-0.01 0.09,-0.01 0.024,0 0.094,-0.037 0.1574,-0.078 0.063,-0.041 0.1853,-0.099 0.2719,-0.1297 0.087,-0.031 0.1639,-0.064 0.1718,-0.074 0.01,-0.01 0.085,-0.041 0.1717,-0.07 0.087,-0.029 0.1703,-0.06 0.1861,-0.069 0.016,-0.01 0.046,-0.02 0.067,-0.023 0.021,0 0.06,-0.016 0.086,-0.028 0.054,-0.025 0.1269,-0.041 0.2365,-0.053 0.041,0 0.1318,-0.036 0.2023,-0.071 0.07,-0.035 0.1506,-0.063 0.1783,-0.063 0.028,0 0.07,-0.02 0.093,-0.044 0.024,-0.024 0.074,-0.045 0.1124,-0.048 0.1047,-0.01 0.1201,-0.01 0.1435,-0.033 0.012,-0.012 0.044,-0.022 0.072,-0.022 0.028,0 0.069,-0.019 0.093,-0.043 0.068,-0.069 0.2504,-0.1204 0.4249,-0.1188 0.1273,0 0.1559,-0.01 0.1325,-0.035 -0.039,-0.048 0.011,-0.048 0.061,-3e-4 0.032,0.03 0.035,0.027 0.021,-0.015 -0.015,-0.042 6e-4,-0.052 0.089,-0.055 0.059,0 0.1258,-0.01 0.1494,-0.01 0.024,0 0.062,-0.01 0.086,-0.011 0.038,0 0.038,-0.01 0,-0.033 -0.035,-0.023 -0.031,-0.029 0.021,-0.029 0.035,-3e-4 0.064,0.01 0.064,0.023 0,0.013 0.055,0.02 0.1217,0.015 0.2326,-0.017 0.5514,-0.014 0.6225,0.01 0.08,0.023 0.1217,0.024 0.3345,0.01 0.082,-0.01 0.142,0 0.1343,0.012 -0.018,0.03 0.012,0.029 0.125,0 0.061,-0.018 0.099,-0.017 0.1107,0 0.012,0.019 0.027,0.016 0.042,-0.01 0.019,-0.031 0.032,-0.032 0.058,0 0.023,0.024 0.051,0.026 0.085,0.01 0.028,-0.015 0.094,-0.026 0.1459,-0.024 0.052,0 0.1494,0 0.2164,-0.013 0.076,-0.01 0.1216,0 0.1216,0.015 0,0.02 0.013,0.02 0.039,0 0.042,-0.035 0.3,-0.033 0.322,0 z m -0.4902,1.4623 c -0.3353,-0.016 -0.372,-0.015 -0.7013,0.01 -0.1653,0.012 -0.3585,0.025 -0.4294,0.029 -0.22,0.013 -0.5329,0.065 -0.5934,0.098 -0.032,0.017 -0.087,0.026 -0.1241,0.019 -0.036,-0.01 -0.086,0 -0.111,0.027 -0.024,0.022 -0.083,0.047 -0.1304,0.056 -0.047,0.01 -0.1567,0.032 -0.2433,0.05 -0.087,0.018 -0.1832,0.033 -0.2147,0.032 -0.032,-9e-4 -0.1281,0.023 -0.2146,0.053 -0.087,0.03 -0.1961,0.062 -0.2434,0.07 -0.113,0.02 -0.2814,0.086 -0.3048,0.1188 -0.01,0.014 -0.038,0.018 -0.062,0.01 -0.024,-0.01 -0.094,0.01 -0.1556,0.038 -0.061,0.03 -0.1429,0.06 -0.1809,0.065 -0.038,0.01 -0.097,0.026 -0.1316,0.046 -0.034,0.019 -0.092,0.036 -0.1288,0.036 -0.037,5e-4 -0.1104,0.046 -0.1651,0.1023 -0.054,0.056 -0.1104,0.1014 -0.1245,0.1014 -0.061,0 -0.6987,0.3141 -0.8145,0.4011 -0.051,0.039 -0.1047,0.063 -0.1187,0.054 -0.014,-0.01 -0.033,0 -0.042,0.028 -0.01,0.024 -0.051,0.06 -0.094,0.08 -0.081,0.038 -0.1807,0.117 -0.358,0.2852 -0.059,0.056 -0.1413,0.1287 -0.1822,0.1608 -0.1372,0.1079 -0.3288,0.3027 -0.3288,0.3343 0,0.017 -0.02,0.031 -0.044,0.031 -0.056,0 -0.185,0.086 -0.185,0.1228 0,0.016 -0.085,0.1095 -0.189,0.2086 -0.3161,0.3016 -0.4408,0.426 -0.4408,0.4401 0,0.01 -0.035,0.054 -0.079,0.1031 -0.043,0.049 -0.1265,0.1458 -0.185,0.2143 -0.059,0.069 -0.1414,0.164 -0.1842,0.2123 -0.043,0.048 -0.075,0.088 -0.071,0.088 0,0 -0.01,0.036 -0.023,0.08 -0.017,0.044 -0.044,0.08 -0.061,0.08 -0.017,0 -0.023,0.014 -0.013,0.03 0.01,0.017 -0.021,0.072 -0.07,0.1222 -0.048,0.051 -0.096,0.1191 -0.1059,0.1524 -0.01,0.033 -0.038,0.083 -0.062,0.1113 -0.047,0.054 -0.1849,0.6314 -0.1608,0.6713 0.01,0.013 -0.01,0.032 -0.032,0.042 -0.026,0.01 -0.041,0.034 -0.034,0.053 0.01,0.019 0,0.066 -0.024,0.1044 -0.02,0.039 -0.03,0.087 -0.022,0.1085 0.01,0.021 0,0.055 -0.015,0.075 -0.016,0.02 -0.037,0.095 -0.045,0.1678 -0.01,0.072 -0.029,0.1842 -0.045,0.2485 -0.028,0.1143 -0.044,1.4889 -0.019,1.6119 0.01,0.034 0.028,0.1131 0.046,0.1754 0.029,0.099 0.083,0.4139 0.1337,0.7785 0.01,0.06 0.028,0.1096 0.044,0.1096 0.016,0 0.021,0.02 0.012,0.044 -0.01,0.024 0.01,0.096 0.041,0.1583 0.032,0.063 0.06,0.1399 0.062,0.1717 0,0.038 0.019,0.052 0.046,0.041 0.026,-0.01 0.034,0 0.022,0.017 -0.011,0.018 5e-4,0.074 0.026,0.1244 0.025,0.05 0.047,0.1294 0.048,0.1763 0,0.047 0.01,0.085 0.02,0.085 0.01,0 0.021,0.033 0.024,0.074 0,0.041 0.026,0.1131 0.05,0.1608 0.024,0.048 0.036,0.087 0.025,0.087 -0.01,0 0,0.034 0.03,0.076 0.027,0.042 0.043,0.082 0.036,0.089 -0.01,0.01 0.024,0.053 0.069,0.1029 0.045,0.049 0.082,0.107 0.082,0.1281 0,0.021 0.014,0.043 0.031,0.049 0.017,0.01 0.033,0.046 0.036,0.09 0,0.044 0.014,0.079 0.026,0.079 0.012,0 0.022,0.02 0.022,0.045 0,0.025 0.018,0.052 0.04,0.06 0.022,0.01 0.047,0.053 0.056,0.098 0.01,0.045 0.034,0.1009 0.057,0.1237 0.022,0.023 0.05,0.071 0.061,0.106 0.011,0.036 0.052,0.104 0.092,0.1522 0.04,0.048 0.075,0.1047 0.078,0.1257 0,0.021 0.034,0.07 0.069,0.1079 0.035,0.038 0.064,0.092 0.064,0.1202 0,0.064 0.088,0.2377 0.1366,0.2692 0.02,0.013 0.028,0.038 0.017,0.056 -0.011,0.019 -0.01,0.024 0.013,0.012 0.018,-0.011 0.081,0.032 0.1442,0.098 0.062,0.065 0.1257,0.1181 0.1422,0.1181 0.017,0 0.039,0.029 0.05,0.065 0.025,0.08 0.1567,0.2269 0.2038,0.2269 0.019,0 0.045,0.017 0.057,0.037 0.03,0.048 0.1683,0.1382 0.213,0.1382 0.019,0 0.07,0.043 0.1143,0.095 0.044,0.052 0.08,0.079 0.081,0.059 0,-0.05 0.1058,-0.047 0.1246,0 0.01,0.022 0.073,0.069 0.1437,0.1037 0.071,0.035 0.1357,0.083 0.1445,0.106 0.01,0.023 0.045,0.043 0.081,0.043 0.036,5e-4 0.088,0.019 0.1167,0.041 0.028,0.022 0.077,0.033 0.1073,0.025 0.032,-0.01 0.056,-3e-4 0.056,0.019 0,0.019 0.016,0.03 0.036,0.026 0.02,0 0.072,0.017 0.1171,0.048 0.045,0.031 0.1027,0.057 0.1288,0.059 0.026,0 0.091,0.026 0.144,0.053 0.053,0.027 0.1064,0.043 0.1184,0.035 0.012,-0.01 0.038,0.01 0.057,0.029 0.019,0.024 0.087,0.058 0.1502,0.075 0.1162,0.032 0.2894,0.1069 0.6148,0.266 0.098,0.048 0.1934,0.078 0.212,0.066 0.021,-0.013 0.026,-0.01 0.013,0.012 -0.012,0.02 0,0.034 0.026,0.034 0.028,0 0.038,0.014 0.026,0.034 -0.014,0.023 0,0.028 0.029,0.015 0.031,-0.012 0.078,0 0.1231,0.039 0.04,0.032 0.1075,0.059 0.1499,0.059 0.042,0 0.1365,0.04 0.2091,0.089 0.1304,0.088 0.4946,0.2148 0.5385,0.1871 0.012,-0.01 0.069,0.013 0.1265,0.045 0.057,0.033 0.1149,0.053 0.1283,0.044 0.013,-0.01 0.061,3e-4 0.1055,0.019 0.045,0.019 0.1025,0.037 0.1287,0.04 0.026,0 0.071,0.016 0.1001,0.029 0.029,0.013 0.061,0.025 0.072,0.026 0.01,0 0.029,0.012 0.041,0.024 0.03,0.031 0.076,0.027 0.057,0 -0.01,-0.015 0.026,-0.016 0.084,0 0.055,0.013 0.1,0.017 0.1,0.01 0,-0.01 0.015,0 0.033,0.01 0.018,0.011 0.1241,0.025 0.2361,0.03 0.1853,0.01 0.3182,0.026 0.3182,0.042 0,0 0.058,0.01 0.1288,0.012 0.071,0 0.1803,0.03 0.2433,0.06 0.1277,0.06 0.1921,0.076 0.3077,0.074 0.043,-9e-4 0.079,0.01 0.079,0.021 0,0.012 0.035,0.024 0.079,0.025 0.1602,0.01 0.3512,0.046 0.3364,0.07 -0.025,0.041 0.099,0.112 0.18,0.1029 0.041,0 0.1041,0.011 0.1395,0.035 0.037,0.025 0.08,0.033 0.1013,0.019 0.051,-0.033 0.3165,-0.016 0.3389,0.021 0.01,0.017 0.05,0.034 0.09,0.038 0.039,0 0.1154,0.035 0.1691,0.069 0.1182,0.074 0.3849,0.1956 0.4864,0.2215 0.041,0.01 0.1089,0.052 0.1517,0.093 0.043,0.041 0.1035,0.074 0.1347,0.074 0.031,0 0.064,0.021 0.074,0.046 0.014,0.038 0.023,0.039 0.044,0.01 0.021,-0.031 0.03,-0.031 0.041,0 0.01,0.02 0.033,0.036 0.055,0.036 0.023,0 0.069,0.017 0.1029,0.037 0.073,0.043 0.3082,0.2892 0.3089,0.3233 3e-4,0.013 0.011,0.017 0.024,0.01 0.013,-0.01 0.06,0.017 0.1046,0.057 0.045,0.039 0.098,0.071 0.1179,0.071 0.02,0 0.044,0.025 0.054,0.056 0.01,0.031 0.049,0.077 0.088,0.103 0.039,0.026 0.07,0.067 0.07,0.09 0,0.024 0.026,0.043 0.057,0.043 0.031,0 0.057,0.013 0.057,0.029 0,0.016 0.016,0.029 0.035,0.029 0.019,0 0.093,0.064 0.1646,0.1427 0.077,0.084 0.174,0.157 0.2372,0.1777 0.059,0.019 0.1074,0.045 0.1074,0.057 0,0.012 0.033,0.038 0.073,0.056 0.044,0.021 0.065,0.047 0.053,0.068 -0.014,0.022 -0.01,0.028 0.023,0.017 0.024,-0.01 0.059,0 0.078,0.017 0.037,0.037 0.046,0.04 0.1738,0.045 0.055,0 0.086,0.019 0.086,0.047 0,0.028 0.04,0.05 0.1145,0.062 0.063,0.01 0.1145,0.031 0.1145,0.045 0,0.015 0.016,0.025 0.036,0.022 0.1383,-0.018 0.2787,0.071 0.3628,0.2319 0.018,0.034 0.058,0.063 0.089,0.063 0.031,0 0.056,0.013 0.056,0.029 0,0.016 0.032,0.029 0.071,0.029 0.049,0 0.092,0.032 0.1389,0.1027 0.037,0.056 0.1185,0.1581 0.1799,0.2259 0.061,0.068 0.1084,0.1268 0.1045,0.1312 -0.022,0.024 6e-4,0.072 0.061,0.1311 0.058,0.057 0.074,0.1138 0.1026,0.374 0.019,0.1689 0.045,0.3209 0.059,0.3378 0.014,0.017 0.017,0.06 0.01,0.096 -0.01,0.04 0,0.086 0.031,0.1191 0.031,0.035 0.043,0.083 0.033,0.1365 -0.01,0.052 0,0.1015 0.03,0.1336 0.025,0.028 0.039,0.068 0.033,0.088 -0.01,0.021 0,0.07 0.024,0.1092 0.02,0.04 0.03,0.083 0.022,0.096 -0.01,0.013 0,0.024 0.013,0.024 0.03,0 0.075,0.1384 0.065,0.1995 0,0.021 0.01,0.054 0.022,0.074 0.016,0.019 0.036,0.098 0.045,0.174 0.01,0.076 0.028,0.1615 0.043,0.1893 0.071,0.1338 0.1094,0.2405 0.088,0.2405 -0.013,0 -0.013,0.043 0,0.095 0.014,0.052 0.024,0.1213 0.023,0.1535 0,0.1135 0.038,0.3805 0.07,0.4384 0.017,0.032 0.034,0.074 0.037,0.094 0.018,0.1094 0.082,0.2541 0.1375,0.3107 0.04,0.041 0.077,0.1352 0.1002,0.2544 0.02,0.1043 0.044,0.2093 0.054,0.2334 0.01,0.024 0.02,0.057 0.023,0.073 0.028,0.1438 0.1404,0.2403 0.3124,0.269 0.031,0.01 0.089,0.015 0.1288,0.022 0.039,0.01 0.1536,0.033 0.2538,0.059 0.1003,0.025 0.1969,0.044 0.2147,0.041 0.018,0 0.052,0 0.075,0.012 0.1053,0.041 0.1854,0.046 0.2408,0.014 0.065,-0.037 0.079,-0.04 0.1937,-0.047 0.042,0 0.098,-0.026 0.1242,-0.053 0.035,-0.036 0.053,-0.04 0.069,-0.014 0.023,0.039 0.1167,0.014 0.1167,-0.031 0,-0.016 0.067,-0.024 0.1575,-0.017 0.1137,0.01 0.1574,0 0.1574,-0.026 0,-0.052 0.2002,-0.087 0.2286,-0.04 0.013,0.021 0.029,0.025 0.039,0.01 0.01,-0.015 0.081,-0.024 0.1597,-0.02 0.089,0 0.1542,-0.01 0.1729,-0.03 0.034,-0.042 0.173,-0.025 0.173,0.02 0,0.017 0.019,0.014 0.043,-0.01 0.034,-0.029 0.043,-0.029 0.043,-3e-4 0,0.023 0.026,0.031 0.071,0.023 0.039,-0.01 0.076,7e-4 0.084,0.018 0.01,0.021 0.021,0.022 0.037,0 0.046,-0.058 0.2618,-0.1609 0.3352,-0.1609 0.041,0 0.1006,-0.026 0.1321,-0.058 0.032,-0.032 0.07,-0.059 0.086,-0.059 0.052,0 0.3716,-0.1553 0.3716,-0.1804 0,-0.013 0.017,-0.024 0.037,-0.024 0.021,0 0.065,-0.026 0.099,-0.059 0.034,-0.032 0.073,-0.058 0.088,-0.058 0.014,0 0.042,-0.02 0.062,-0.044 0.02,-0.024 0.061,-0.044 0.092,-0.044 0.031,0 0.1423,-0.046 0.2469,-0.1021 0.1046,-0.056 0.2321,-0.1087 0.2833,-0.1169 0.051,-0.01 0.1284,-0.02 0.1717,-0.027 0.1495,-0.023 0.4805,-0.049 0.7733,-0.062 0.1712,-0.01 0.3264,-0.03 0.3721,-0.053 0.043,-0.023 0.1193,-0.05 0.1694,-0.061 0.05,-0.011 0.1064,-0.039 0.1251,-0.062 0.019,-0.023 0.047,-0.042 0.062,-0.042 0.015,0 0.062,-0.025 0.1043,-0.056 0.067,-0.049 0.119,-0.055 0.4262,-0.046 0.2203,0.01 0.3565,0 0.3681,-0.021 0.012,-0.02 0.025,-0.018 0.04,0.01 0.017,0.027 0.037,0.027 0.089,0 0.068,-0.039 0.085,-0.045 0.1413,-0.052 0.017,0 0.023,-0.016 0.014,-0.03 -0.01,-0.015 0.01,-0.019 0.043,-0.011 0.037,0.01 0.072,0 0.095,-0.036 0.023,-0.032 0.084,-0.055 0.1627,-0.061 0.069,-0.01 0.1299,-0.021 0.1346,-0.036 0.01,-0.027 0.3168,-0.021 0.3441,0.01 0.01,0.01 0.031,0 0.051,-0.015 0.025,-0.021 0.042,-0.021 0.054,2e-4 0.01,0.017 0.044,0.031 0.074,0.031 0.031,0 0.056,0.014 0.056,0.031 0,0.018 0.024,0.023 0.057,0.013 0.032,-0.01 0.057,-0.01 0.057,0.01 0,0.038 0.163,0.094 0.2155,0.073 0.023,-0.01 0.042,0 0.042,0.013 0,0.037 0.1097,0.067 0.1288,0.036 0.017,-0.027 0.1288,0 0.1288,0.027 0,0.011 0.077,0.019 0.1707,0.016 0.1245,0 0.1749,0.01 0.1864,0.038 0.012,0.031 0.025,0.034 0.054,0.01 0.021,-0.018 0.043,-0.027 0.05,-0.021 0.014,0.014 0.4724,0.055 0.5627,0.05 0.035,0 0.064,0.01 0.064,0.023 0,0.014 0.054,0.01 0.1205,-0.011 0.07,-0.021 0.1589,-0.027 0.2125,-0.015 0.051,0.012 0.1349,0.016 0.1873,0.01 0.2271,-0.029 0.926,-0.01 1.0469,0.031 0.041,0.014 0.064,0.01 0.064,-0.012 0,-0.018 0.011,-0.026 0.023,-0.018 0.013,0.01 0.092,-0.01 0.1753,-0.031 0.093,-0.028 0.1588,-0.035 0.1699,-0.017 0.01,0.015 0.1352,0.028 0.2784,0.028 0.1433,0 0.2738,0.01 0.2899,0.019 0.016,0.01 0.096,0 0.1764,-0.026 0.086,-0.026 0.187,-0.037 0.2428,-0.026 0.074,0.014 0.1,0.01 0.1142,-0.03 0.015,-0.039 0.046,-0.046 0.1613,-0.034 0.079,0.01 0.1507,0 0.1603,-0.014 0.01,-0.016 0.034,-0.022 0.054,-0.014 0.02,0.01 0.063,0 0.095,-0.027 0.041,-0.03 0.079,-0.034 0.1264,-0.015 0.043,0.017 0.088,0.015 0.1213,0 0.029,-0.017 0.1317,-0.034 0.2275,-0.039 0.1876,-0.01 0.2847,-0.026 0.335,-0.058 0.017,-0.011 0.042,0 0.055,0.018 0.018,0.031 0.032,0.031 0.065,0 0.023,-0.02 0.085,-0.034 0.1382,-0.032 0.1168,0 0.6652,-0.028 0.7798,-0.047 0.046,-0.01 0.1003,0 0.1217,0.019 0.029,0.025 0.039,0.024 0.039,0 0,-0.019 0.014,-0.026 0.03,-0.016 0.016,0.01 0.052,0.01 0.079,0 0.027,-0.012 0.126,-0.026 0.2205,-0.031 0.226,-0.012 0.2751,-0.02 0.3435,-0.059 0.062,-0.036 0.2934,-0.084 0.3506,-0.073 0.02,0 0.036,-0.01 0.036,-0.03 0,-0.028 0.01,-0.028 0.034,0 0.025,0.025 0.044,0.026 0.071,0 0.021,-0.018 0.038,-0.02 0.038,-0.01 0,0.028 0.8079,0.025 0.9732,0 0.055,-0.01 0.1324,-0.023 0.1718,-0.029 0.039,-0.01 0.075,-0.014 0.079,-0.017 0,0 0.043,-0.01 0.086,-0.014 0.043,0 0.1257,-0.017 0.1831,-0.028 0.058,-0.011 0.1121,-0.01 0.1215,0.01 0.01,0.017 0.06,0.019 0.1246,0 0.059,-0.013 0.1783,-0.02 0.2649,-0.015 0.087,0 0.1735,-0.01 0.1932,-0.021 0.024,-0.019 0.049,-0.018 0.076,0.01 0.023,0.02 0.047,0.023 0.057,0.01 0.01,-0.015 0.048,-0.02 0.088,-0.013 0.04,0.01 0.095,0 0.1223,-0.01 0.028,-0.012 0.08,-0.019 0.115,-0.016 0.035,0 0.064,-0.01 0.064,-0.028 0,-0.024 0.011,-0.026 0.036,-0.01 0.035,0.028 1.223,0.024 1.3596,0 0.035,-0.01 0.064,-4e-4 0.064,0.016 0,0.018 0.1069,0.026 0.2863,0.02 0.1575,-0.01 0.2863,6e-4 0.2863,0.013 0,0.033 0.1085,0.026 0.1295,-0.01 0.01,-0.017 0.04,-0.023 0.067,-0.015 0.027,0.01 0.092,0 0.1448,-0.013 0.053,-0.016 0.1105,-0.019 0.1276,-0.01 0.048,0.031 0.1324,0.03 0.1324,-3e-4 0,-0.015 0.019,-0.02 0.043,-0.011 0.024,0.01 0.043,0 0.043,-0.012 0,-0.016 0.035,-0.022 0.079,-0.013 0.1717,0.034 0.4603,0.046 0.4765,0.019 0.01,-0.016 0.058,-0.019 0.1144,-0.01 0.054,0.012 0.1148,0.011 0.1361,0 0.055,-0.036 0.089,-0.032 0.065,0.01 -0.014,0.024 0,0.027 0.063,0.012 0.1324,-0.035 0.3951,-0.052 0.8486,-0.056 0.2323,0 0.4223,-0.014 0.4223,-0.027 0,-0.013 0.024,-0.016 0.053,-0.01 0.029,0.01 0.087,0 0.1278,-0.012 0.051,-0.02 0.08,-0.019 0.093,0 0.013,0.021 0.028,0.018 0.046,-0.01 0.02,-0.029 0.031,-0.031 0.041,0 0.01,0.019 0.032,0.028 0.055,0.019 0.023,-0.01 0.034,-0.028 0.025,-0.042 -0.01,-0.014 0.056,-0.02 0.1433,-0.013 0.1006,0.01 0.1588,0 0.1588,-0.019 0,-0.019 0.031,-0.024 0.079,-0.013 0.1975,0.047 0.2478,0.049 0.3277,0.015 0.051,-0.022 0.093,-0.025 0.1043,-0.01 0.025,0.035 0.1763,0.043 0.1763,0.01 0,-0.036 0.1354,-0.033 0.1574,0 0.024,0.039 0.2147,0.038 0.2147,0 0,-0.017 -0.015,-0.022 -0.033,-0.01 -0.02,0.013 -0.025,0.01 -0.013,-0.013 0.026,-0.043 0.1029,-0.044 0.1029,0 0,0.019 0.025,0.023 0.064,0.01 0.035,-0.012 0.3027,-0.025 0.594,-0.029 0.2912,0 0.5295,-0.01 0.5295,-0.012 0,0 0.1095,-0.01 0.2433,-0.018 0.1338,-0.01 0.2465,-0.023 0.2505,-0.035 0,-0.011 0.1327,-0.019 0.2862,-0.017 0.1664,0 0.2869,-0.01 0.2984,-0.027 0.013,-0.021 0.033,-0.019 0.062,0.01 0.032,0.027 0.048,0.028 0.063,0 0.014,-0.023 0.07,-0.028 0.1726,-0.016 0.084,0.01 0.1583,0.01 0.1661,-0.01 0.01,-0.013 0.1434,-0.026 0.3014,-0.03 0.158,0 0.3182,-0.018 0.356,-0.033 0.046,-0.018 0.08,-0.016 0.101,0.01 0.021,0.022 0.032,0.023 0.032,0 0,-0.017 0.035,-0.032 0.079,-0.032 0.9755,-0.018 1.323004,-0.03 1.385604,-0.048 0.044,-0.013 0.1012,-0.01 0.1366,0.011 0.033,0.018 0.075,0.024 0.093,0.012 0.035,-0.022 0.1114,-0.032 0.3643,-0.047 0.093,-0.01 0.1601,-0.024 0.1674,-0.046 0.01,-0.026 0.023,-0.028 0.047,-0.01 0.023,0.019 0.068,0.02 0.1277,0 0.051,-0.015 0.1099,-0.02 0.1311,-0.012 0.021,0.01 0.083,0 0.1371,-0.012 0.054,-0.015 0.1176,-0.017 0.1412,0 0.064,0.037 0.3934,0.054 0.4129,0.022 0.01,-0.015 0.035,-0.021 0.057,-0.012 0.022,0.01 0.04,0.01 0.04,-0.01 -10e-5,-0.011 0.1191,-0.021 0.2647,-0.022 0.1457,-4e-4 0.3131,-0.01 0.3722,-0.021 0.07,-0.013 0.1073,-0.01 0.1073,0.012 0,0.021 0.013,0.02 0.04,0 0.026,-0.022 0.046,-0.024 0.058,0 0.012,0.019 0.043,0.02 0.088,0 0.039,-0.015 0.092,-0.019 0.1182,-0.01 0.032,0.013 0.041,0.01 0.027,-0.015 -0.025,-0.041 0.01,-0.044 0.068,-0.01 0.028,0.018 0.049,0.015 0.063,-0.01 0.016,-0.027 0.029,-0.027 0.056,8e-4 0.022,0.023 0.046,0.026 0.068,0.01 0.018,-0.015 0.075,-0.031 0.1271,-0.035 0.052,0 0.1009,-0.024 0.1088,-0.045 0.01,-0.025 0.026,-0.028 0.047,-0.011 0.018,0.015 0.1999,0.026 0.4046,0.024 0.2515,0 0.3935,0.01 0.4383,0.034 0.047,0.026 0.077,0.028 0.1022,0.01 0.025,-0.021 0.092,-0.021 0.2142,0 0.098,0.016 0.188,0.023 0.2,0.016 0.012,-0.01 0.069,0 0.1274,0.011 0.068,0.016 0.1058,0.014 0.1058,-0.01 0,-0.018 0.016,-0.016 0.04,0 0.024,0.02 0.047,0.023 0.057,0.01 0.01,-0.015 0.042,-0.034 0.074,-0.043 0.032,-0.01 0.051,0 0.042,0.011 -0.01,0.015 0.01,0.028 0.036,0.03 0.1572,0.01 0.3176,0 0.3774,-0.016 0.047,-0.015 0.062,-0.012 0.048,0.01 -0.011,0.018 -0.01,0.032 0.011,0.032 0.017,0 0.03,-0.013 0.03,-0.03 0,-0.017 0.045,-0.025 0.1068,-0.018 0.059,0.01 0.1344,0 0.1683,-0.012 0.034,-0.013 0.1307,-0.015 0.2152,0 0.085,0.011 0.2246,0.012 0.3111,0 0.087,-0.01 0.1704,-0.01 0.1861,0 0.016,0.012 0.1231,0.02 0.2386,0.017 0.1154,0 0.2157,0 0.2228,0.016 0.01,0.012 0.046,0.01 0.085,-0.01 0.091,-0.035 0.105,-0.035 0.083,6e-4 -0.022,0.036 0.1561,0 0.2073,-0.036 0.024,-0.019 0.049,-0.017 0.077,0.01 0.031,0.026 0.056,0.027 0.1008,0 0.033,-0.018 0.073,-0.024 0.089,-0.014 0.016,0.01 0.2219,0.02 0.4573,0.022 0.2434,0 0.4281,0.015 0.4281,0.03 0,0.015 0.019,0.011 0.042,-0.01 0.023,-0.02 0.1537,-0.04 0.2934,-0.046 0.1383,-0.01 0.2607,-0.011 0.272,-0.012 0.011,-7e-4 0.012,-0.024 0,-0.052 -0.015,-0.041 -0.011,-0.045 0.022,-0.019 0.045,0.035 0.3691,0.034 0.4249,0 0.048,-0.031 0.3739,-0.041 0.3911,-0.013 0.01,0.013 0.03,0.018 0.049,0.011 0.055,-0.02 0.3044,-0.034 0.2935,-0.016 -0.01,0.01 0.076,0.013 0.1806,0.01 0.2812,-0.011 0.2903,-0.01 0.4767,0.01 0.095,0.01 0.22,0.019 0.279,0.018 0.06,-5e-4 0.1,0.011 0.091,0.027 -0.01,0.016 0.031,0.026 0.093,0.024 0.06,0 0.139,0 0.1748,0.012 0.036,0.01 0.1259,0 0.2003,-0.026 0.1041,-0.032 0.1721,-0.035 0.2939,-0.013 0.087,0.016 0.1999,0.024 0.2505,0.018 0.051,-0.01 0.092,9e-4 0.092,0.016 0,0.015 0.024,0.013 0.053,0 0.074,-0.04 0.2596,-0.058 0.2785,-0.027 0.01,0.014 0.031,0.016 0.049,0 0.075,-0.048 0.3914,-0.068 0.3921,-0.024 2e-4,0.018 0.01,0.017 0.021,0 0.012,-0.019 0.1005,-0.034 0.2071,-0.034 0.1023,-6e-4 0.2247,0 0.2719,0 0.047,0 0.1743,0 0.2823,0 0.14,0 0.2035,-0.01 0.2214,-0.035 0.015,-0.024 0.025,-0.027 0.026,-0.01 2e-4,0.018 0.052,0.038 0.1149,0.045 0.063,0.01 0.1145,-7e-4 0.1145,-0.015 0,-0.014 0.016,-0.013 0.036,0 0.072,0.058 0.1862,0.068 0.2048,0.019 0.012,-0.033 0.028,-0.038 0.053,-0.018 0.019,0.016 0.081,0.026 0.1356,0.021 0.055,0 0.1181,0.01 0.1399,0.025 0.024,0.02 0.1921,0.034 0.4293,0.036 0.2144,0 0.4091,0.012 0.4327,0.021 0.024,0.01 0.096,0.014 0.1608,0.011 0.086,0 0.1138,-0.017 0.1029,-0.046 -0.011,-0.029 0.01,-0.026 0.061,0.011 0.052,0.035 0.076,0.04 0.076,0.015 0,-0.026 0.035,-0.03 0.1263,-0.016 0.078,0.012 0.1334,0.01 0.1448,-0.011 0.028,-0.046 0.1578,-0.037 0.1766,0.013 0.01,0.024 0.028,0.044 0.042,0.044 0.014,0 0.026,-0.02 0.026,-0.044 0,-0.05 0.088,-0.055 0.279,-0.017 0.068,0.013 0.1217,0.013 0.1217,0 0,-0.043 0.059,-0.028 0.1469,0.036 0.046,0.034 0.1014,0.054 0.1225,0.046 0.021,-0.01 0.052,-9e-4 0.069,0.016 0.017,0.017 0.07,0.036 0.1168,0.041 0.047,0.01 0.1475,0.017 0.223,0.026 0.075,0.01 0.1758,0.014 0.223,0.012 0.047,0 0.131,-0.01 0.1861,-0.01 0.055,0 0.1148,-0.014 0.1327,-0.026 0.018,-0.012 0.046,0 0.063,0.016 0.032,0.039 0.3698,0.047 0.4282,0.01 0.017,-0.011 0.09,-0.01 0.1625,0.011 0.072,0.017 0.162,0.022 0.1991,0.013 0.037,-0.01 0.075,-0.01 0.083,0.01 0.01,0.014 0.1137,0.021 0.2333,0.014 0.149,-0.01 0.2313,0 0.2614,0.025 0.033,0.028 0.049,0.029 0.065,0 0.014,-0.024 0.048,-0.026 0.1109,-0.01 0.1016,0.03 0.3937,0.021 0.4769,-0.014 0.036,-0.015 0.048,-0.013 0.036,0.01 -0.012,0.02 0.025,0.028 0.1098,0.022 0.071,0 0.1284,0 0.1284,0.02 0,0.016 0.012,0.021 0.028,0.011 0.015,-0.01 0.1326,-0.023 0.2606,-0.03 0.128,-0.01 0.2507,-0.028 0.2727,-0.046 0.03,-0.026 0.04,-0.026 0.04,6e-4 0,0.019 0.013,0.026 0.03,0.016 0.016,-0.01 0.045,-0.01 0.064,0.01 0.023,0.019 0.087,0.02 0.189,5e-4 0.095,-0.018 0.161,-0.018 0.1717,0 0.01,0.015 0.1203,0.024 0.2463,0.02 0.2079,-0.01 0.2353,-8e-4 0.2973,0.062 0.074,0.075 0.1177,0.089 0.1177,0.037 0,-0.022 0.035,-0.025 0.1074,-0.011 0.059,0.012 0.3286,0.025 0.599,0.029 0.2704,0 0.5029,0.015 0.5166,0.024 0.014,0.01 0.044,0 0.066,-0.011 0.053,-0.034 0.093,-0.035 0.072,0 -0.019,0.032 0.2146,0.024 0.2661,-0.01 0.052,-0.033 0.3498,-0.045 0.3307,-0.014 -0.01,0.014 0.02,0.012 0.063,0 0.043,-0.017 0.095,-0.024 0.1162,-0.015 0.021,0.01 0.038,5e-4 0.038,-0.017 0,-0.022 0.013,-0.021 0.04,0 0.027,0.023 0.046,0.024 0.059,0 0.011,-0.017 0.069,-0.023 0.1385,-0.014 0.066,0.01 0.1622,0.017 0.2134,0.017 0.051,4e-4 0.099,0.01 0.1059,0.022 0.024,0.041 0.7026,-0.01 0.7026,-0.051 0,-0.028 0.2182,-0.026 0.2455,0 0.012,0.012 0.041,0.01 0.065,-0.015 0.036,-0.03 0.039,-0.029 0.02,0 -0.019,0.032 -0.013,0.034 0.03,0.01 0.036,-0.021 0.071,-0.021 0.1078,-7e-4 0.039,0.021 0.061,0.02 0.076,-0.01 0.016,-0.026 0.029,-0.022 0.05,0.016 0.02,0.036 0.051,0.047 0.1034,0.037 0.044,-0.01 0.088,0 0.1074,0.025 0.018,0.022 0.081,0.04 0.1416,0.04 0.06,0 0.1173,0.013 0.127,0.029 0.01,0.016 0.041,0.029 0.07,0.029 0.029,0 0.06,0.021 0.07,0.047 0.01,0.028 0.036,0.04 0.062,0.03 0.027,-0.01 0.075,0.015 0.1214,0.064 0.043,0.044 0.084,0.083 0.092,0.085 0.1046,0.032 0.1992,0.085 0.2836,0.1583 0.2088,0.1814 0.3747,0.3525 0.3747,0.3866 0,0.019 0.032,0.084 0.072,0.143 0.054,0.082 0.075,0.159 0.087,0.3161 0.01,0.1165 0.035,0.2393 0.06,0.2789 0.025,0.039 0.034,0.071 0.021,0.072 -0.014,5e-4 0,0.017 0.021,0.037 0.025,0.02 0.055,0.065 0.066,0.1014 0.012,0.04 0.043,0.066 0.079,0.066 0.04,0 0.053,0.014 0.042,0.044 -0.01,0.024 -0.01,0.044 0,0.044 0.054,0 0.2344,0.2169 0.2344,0.2811 0,0.038 0.013,0.07 0.029,0.07 0.016,0 0.029,0.02 0.029,0.044 0,0.024 0.013,0.044 0.028,0.044 0.015,0 0.036,0.033 0.046,0.073 0.01,0.04 0.03,0.073 0.045,0.073 0.015,0 0.02,0.025 0.01,0.055 -0.01,0.03 0,0.1124 0.024,0.1827 0.023,0.07 0.05,0.1739 0.061,0.2302 0.011,0.056 0.047,0.1326 0.081,0.1696 0.052,0.057 0.054,0.071 0.018,0.095 -0.025,0.016 -0.028,0.027 -0.01,0.028 0.029,4e-4 0.089,0.1368 0.1067,0.2434 0,0.019 0.026,0.081 0.05,0.1372 0.089,0.205 0.1118,0.271 0.097,0.2861 -0.01,0.01 0,0.03 0.01,0.047 0.014,0.018 0.086,0.2293 0.1617,0.4706 0.075,0.2412 0.1478,0.443 0.1611,0.4483 0.013,0.01 0.024,0.035 0.024,0.065 0,0.03 0.024,0.098 0.052,0.1511 0.029,0.053 0.061,0.1321 0.072,0.1764 0.011,0.044 0.064,0.177 0.1192,0.2949 0.055,0.1179 0.1,0.233 0.1,0.2558 1e-4,0.023 0.019,0.079 0.043,0.1248 0.023,0.046 0.036,0.094 0.028,0.1076 -0.01,0.013 0,0.033 0.015,0.043 0.016,0.01 0.021,0.032 0.011,0.049 -0.01,0.017 0,0.041 0.019,0.054 0.021,0.013 0.041,0.048 0.045,0.077 0.01,0.068 0.1758,0.4196 0.2248,0.4775 0.02,0.024 0.091,0.1492 0.1576,0.2778 0.066,0.1287 0.132,0.2464 0.1461,0.2617 0.014,0.015 0.026,0.052 0.026,0.08 0,0.029 0.019,0.053 0.043,0.053 0.024,0 0.043,0.025 0.043,0.056 0,0.031 0.018,0.075 0.04,0.097 0.022,0.022 0.067,0.1023 0.1009,0.1775 0.034,0.075 0.078,0.1368 0.1,0.1368 0.021,0 0.037,0.022 0.035,0.049 0,0.027 0.025,0.065 0.06,0.083 0.035,0.018 0.057,0.041 0.047,0.051 -0.02,0.021 0.077,0.1968 0.1094,0.1968 0.012,0 0.022,0.015 0.022,0.033 0,0.049 0.2066,0.3175 0.244,0.3175 0.018,0 0.058,0.03 0.09,0.066 0.032,0.036 0.092,0.095 0.134,0.1314 0.042,0.036 0.076,0.086 0.076,0.1103 0,0.04 0.1102,0.1075 0.186,0.114 0.016,0 0.033,0.032 0.038,0.068 0,0.036 0.026,0.066 0.046,0.066 0.02,0 0.071,0.053 0.1129,0.117 0.043,0.067 0.099,0.117 0.1291,0.117 0.071,0 0.1352,0.076 0.083,0.097 -0.02,0.01 -0.01,0.016 0.028,0.017 0.036,0 0.072,0.02 0.08,0.042 0.01,0.022 0.078,0.07 0.1551,0.1066 0.077,0.037 0.1377,0.081 0.1345,0.098 0,0.017 0.02,0.036 0.052,0.042 0.032,0.01 0.09,0.041 0.1289,0.077 0.087,0.079 0.2237,0.1411 0.2597,0.1183 0.015,-0.01 0.026,0 0.026,0.029 0,0.026 0.024,0.046 0.056,0.046 0.066,0 0.2586,0.089 0.2586,0.1192 0,0.011 0.02,0.029 0.044,0.038 0.03,0.012 0.037,0.01 0.023,-0.018 -0.012,-0.02 0.015,-0.01 0.06,0.029 0.045,0.036 0.1053,0.065 0.1346,0.065 0.034,0 0.053,0.021 0.053,0.059 0,0.039 0.019,0.059 0.057,0.059 0.034,0 0.057,0.019 0.057,0.047 0,0.037 0.01,0.04 0.04,0.014 0.031,-0.026 0.043,-0.023 0.056,0.011 0.01,0.026 0.052,0.045 0.1,0.045 0.046,0 0.1,0.02 0.1198,0.045 0.02,0.025 0.057,0.041 0.082,0.037 0.025,0 0.1072,0.029 0.1821,0.073 0.075,0.045 0.1509,0.072 0.1691,0.061 0.022,-0.014 0.027,0 0.015,0.027 -0.014,0.039 2e-4,0.047 0.077,0.044 0.052,0 0.1125,0.01 0.1347,0.022 0.05,0.032 0.1209,0.034 0.1423,0.01 0.01,-0.012 0.077,0 0.1516,0.02 0.086,0.026 0.1648,0.033 0.2153,0.018 0.047,-0.014 0.1015,-0.011 0.133,0.01 0.029,0.017 0.129,0.034 0.2217,0.039 0.093,0 0.1848,0.022 0.2047,0.039 0.02,0.017 0.046,0.021 0.057,0.01 0.039,-0.04 0.2455,-0.033 0.2455,0.01 0,0.028 0.036,0.035 0.1322,0.027 0.073,-0.01 0.154,3e-4 0.1805,0.015 0.028,0.015 0.065,0.015 0.089,7e-4 0.023,-0.015 0.047,-0.015 0.056,-10e-5 0.013,0.022 0.2135,0.035 0.4484,0.03 0.034,-7e-4 0.069,-0.021 0.078,-0.045 0.01,-0.024 0.031,-0.043 0.049,-0.043 0.018,0 0.025,0.019 0.017,0.043 -0.013,0.035 0,0.037 0.053,0.01 0.054,-0.025 0.081,-0.023 0.1187,0.01 0.032,0.027 0.042,0.028 0.028,0 -0.019,-0.033 0.03,-0.052 0.1036,-0.04 0.012,0 0.021,-0.017 0.021,-0.042 0,-0.025 0.012,-0.038 0.027,-0.029 0.015,0.01 0.034,0 0.043,-0.011 0.01,-0.017 0.048,-0.012 0.093,0.013 0.075,0.04 0.1376,0.032 0.1102,-0.013 -0.01,-0.013 0.018,-0.017 0.057,-0.01 0.044,0.01 0.071,4e-4 0.071,-0.022 0,-0.027 0.01,-0.028 0.038,0 0.021,0.018 0.046,0.024 0.056,0.015 0.01,-0.01 0.054,0 0.099,0.011 0.059,0.021 0.095,0.019 0.1316,-0.01 0.027,-0.021 0.077,-0.03 0.1103,-0.021 0.046,0.012 0.055,0.01 0.037,-0.025 -0.015,-0.026 0,-0.024 0.031,0.01 0.041,0.036 0.068,0.041 0.1066,0.02 0.036,-0.021 0.064,-0.019 0.095,0.01 0.026,0.022 0.051,0.026 0.063,0.01 0.011,-0.015 0.032,-0.03 0.048,-0.033 0.016,0 0.053,-0.015 0.083,-0.027 0.038,-0.015 0.048,-0.011 0.034,0.012 -0.013,0.022 -0.01,0.028 0.024,0.017 0.024,-0.01 0.039,-0.027 0.032,-0.038 -0.01,-0.011 0.051,-0.018 0.129,-0.015 0.078,0 0.141402,-0.01 0.141402,-0.02 0,-0.014 0.019,-0.026 0.043,-0.026 0.024,0 0.043,-0.013 0.043,-0.028 0,-0.016 0.018,-0.021 0.039,-0.013 0.021,0.01 0.047,-0.01 0.057,-0.034 0.016,-0.042 0.025,-0.043 0.066,-0.01 0.037,0.031 0.05,0.032 0.059,0 0.01,-0.02 0.029,-0.036 0.049,-0.036 0.02,0 0.053,-0.02 0.073,-0.045 0.022,-0.027 0.058,-0.037 0.092,-0.026 0.068,0.022 0.2506,-0.072 0.2506,-0.1291 0,-0.024 0.017,-0.033 0.043,-0.024 0.025,0.01 0.043,5e-4 0.043,-0.022 0,-0.033 0.1117,-0.079 0.2145,-0.088 0.016,0 0.074,-0.05 0.1289,-0.1082 0.055,-0.058 0.1431,-0.1153 0.1953,-0.1271 0.052,-0.012 0.1018,-0.04 0.1103,-0.062 0.01,-0.023 0.031,-0.041 0.051,-0.041 0.019,0 0.059,-0.026 0.087,-0.058 0.028,-0.032 0.07,-0.059 0.092,-0.059 0.022,0 0.032,-0.013 0.023,-0.029 -0.01,-0.016 0,-0.029 0.025,-0.029 0.059,0 0.09,-0.06 0.046,-0.088 -0.024,-0.015 -0.01,-0.029 0.052,-0.043 0.098,-0.022 0.1552,-0.077 0.1428,-0.1371 0,-0.022 0.01,-0.036 0.029,-0.032 0.02,0 0.055,-0.035 0.078,-0.088 0.022,-0.053 0.041,-0.085 0.042,-0.072 0,0.039 0.1195,-0.087 0.19,-0.2042 0.037,-0.061 0.067,-0.099 0.068,-0.084 8e-4,0.025 0.2013,-0.1811 0.2013,-0.2073 0,-0.01 0.03,-0.061 0.068,-0.1214 0.037,-0.06 0.077,-0.1523 0.088,-0.2041 0.011,-0.052 0.034,-0.094 0.05,-0.094 0.016,0 0.022,-0.02 0.012,-0.045 -0.01,-0.026 0,-0.052 0.026,-0.062 0.023,-0.01 0.043,-0.041 0.043,-0.07 0,-0.029 0.013,-0.062 0.029,-0.072 0.016,-0.01 0.029,-0.049 0.029,-0.087 0,-0.038 0.015,-0.074 0.033,-0.08 0.024,-0.01 0.023,-0.029 0,-0.079 -0.023,-0.043 -0.024,-0.061 0,-0.048 0.019,0.012 0.031,0 0.031,-0.04 0,-0.033 0.011,-0.06 0.025,-0.06 0.014,0 0.026,-0.069 0.028,-0.1535 0.011,-0.5017 0.018,-0.636 0.034,-0.636 0.031,0 0.01,-0.7725 -0.025,-0.8572 -0.041,-0.1024 -0.041,-0.1164 0,-0.091 0.022,0.014 0.025,0 0.01,-0.049 -0.012,-0.038 -0.024,-0.1182 -0.026,-0.1778 0,-0.06 -0.011,-0.1168 -0.022,-0.1272 -0.01,-0.01 -0.012,-0.034 -0.01,-0.054 0.01,-0.019 -0.01,-0.089 -0.028,-0.1546 -0.028,-0.08 -0.032,-0.1293 -0.012,-0.1491 0.019,-0.02 0.018,-0.05 0,-0.093 -0.018,-0.035 -0.03,-0.099 -0.025,-0.142 0,-0.043 0,-0.095 -0.014,-0.1152 -0.012,-0.02 -0.015,-0.049 -0.01,-0.064 0.01,-0.015 0,-0.036 -0.015,-0.047 -0.017,-0.011 -0.024,-0.051 -0.014,-0.09 0.011,-0.043 0,-0.07 -0.015,-0.07 -0.019,0 -0.027,-0.03 -0.019,-0.073 0.01,-0.04 0,-0.073 -0.014,-0.073 -0.015,0 -0.02,-0.032 -0.01,-0.071 0.01,-0.039 0.01,-0.079 -0.01,-0.088 -0.015,-0.01 -0.024,-0.075 -0.021,-0.1452 0,-0.071 0,-0.123 -0.013,-0.1166 -0.01,0.01 -0.026,-0.01 -0.035,-0.034 -0.01,-0.025 -0.01,-0.038 0.01,-0.029 0.015,0.01 0.025,-0.023 0.024,-0.072 0,-0.057 -0.017,-0.088 -0.044,-0.088 -0.035,0 -0.035,-0.011 0.01,-0.073 0.026,-0.04 0.035,-0.073 0.021,-0.073 -0.014,0 -0.033,-0.026 -0.041,-0.059 -0.01,-0.032 0,-0.058 0.015,-0.058 0.02,0 0.02,-0.012 0,-0.037 -0.016,-0.02 -0.025,-0.059 -0.021,-0.086 0,-0.027 -0.011,-0.057 -0.034,-0.066 -0.023,-0.01 -0.034,-0.029 -0.025,-0.045 0.01,-0.016 0,-0.072 -0.032,-0.1245 -0.027,-0.053 -0.046,-0.1307 -0.042,-0.1733 0,-0.053 -0.013,-0.092 -0.056,-0.123 -0.053,-0.038 -0.058,-0.053 -0.027,-0.091 0.02,-0.025 0.024,-0.045 0.01,-0.045 -0.04,0 -0.1028,-0.1653 -0.083,-0.2188 0.01,-0.024 0,-0.044 -0.013,-0.044 -0.016,0 -0.042,-0.038 -0.058,-0.085 -0.016,-0.047 -0.047,-0.092 -0.068,-0.1005 -0.021,-0.01 -0.033,-0.039 -0.025,-0.068 0.01,-0.03 -0.014,-0.083 -0.048,-0.1207 -0.034,-0.037 -0.054,-0.076 -0.044,-0.085 0.01,-0.01 -1e-4,-0.045 -0.021,-0.079 -0.021,-0.033 -0.054,-0.1081 -0.072,-0.1659 -0.019,-0.058 -0.065,-0.1224 -0.1045,-0.1439 -0.039,-0.021 -0.071,-0.06 -0.071,-0.087 0,-0.026 -0.038,-0.085 -0.085,-0.1311 -0.047,-0.046 -0.078,-0.095 -0.069,-0.1098 0.01,-0.015 -0.01,-0.045 -0.037,-0.068 -0.029,-0.023 -0.041,-0.041 -0.027,-0.042 0.014,-5e-4 0,-0.024 -0.029,-0.052 -0.03,-0.028 -0.071,-0.089 -0.091,-0.1354 -0.02,-0.046 -0.043,-0.077 -0.052,-0.067 -0.01,0.01 -0.05,-0.015 -0.092,-0.055 -0.041,-0.039 -0.085,-0.071 -0.097,-0.071 -0.012,0 -0.022,-0.02 -0.022,-0.044 0,-0.024 -0.013,-0.044 -0.029,-0.044 -0.016,0 -0.029,-0.014 -0.029,-0.031 0,-0.044 -0.074,-0.1149 -0.121,-0.1149 -0.054,0 -0.1063,-0.058 -0.09,-0.1009 0.01,-0.019 -0.038,-0.093 -0.1015,-0.1635 -0.063,-0.07 -0.1225,-0.1643 -0.132,-0.2083 -0.01,-0.044 -0.042,-0.088 -0.072,-0.098 -0.079,-0.026 -0.3856,-0.3437 -0.3756,-0.39 0,-0.023 -0.01,-0.031 -0.024,-0.019 -0.018,0.011 -0.055,-0.01 -0.084,-0.041 -0.029,-0.034 -0.061,-0.061 -0.071,-0.061 -0.011,0 -0.054,-0.033 -0.097,-0.073 -0.042,-0.04 -0.092,-0.073 -0.111,-0.073 -0.019,0 -0.072,-0.036 -0.118202,-0.081 -0.2472,-0.2358 -0.3845,-0.3581 -0.402,-0.3581 -0.011,0 -0.035,-0.025 -0.054,-0.056 -0.019,-0.031 -0.1057,-0.1045 -0.193,-0.1637 -0.087,-0.059 -0.1586,-0.1194 -0.1586,-0.134 0,-0.014 -0.021,-0.026 -0.046,-0.026 -0.029,0 -0.04,-0.016 -0.03,-0.043 0.01,-0.024 0.01,-0.041 0,-0.038 -0.029,0.01 -0.1593,-0.067 -0.184,-0.106 -0.011,-0.018 -0.037,-0.032 -0.056,-0.032 -0.02,0 -0.052,-0.033 -0.072,-0.073 -0.02,-0.04 -0.036,-0.057 -0.037,-0.036 -2e-4,0.022 -0.024,0.013 -0.059,-0.023 -0.032,-0.033 -0.051,-0.071 -0.043,-0.085 0.01,-0.014 -0.03,-0.062 -0.085,-0.1066 -0.055,-0.045 -0.1,-0.1 -0.1,-0.122 0,-0.028 -0.019,-0.034 -0.059,-0.021 -0.041,0.013 -0.057,0.01 -0.051,-0.02 0,-0.022 -0.014,-0.081 -0.041,-0.1326 -0.027,-0.052 -0.049,-0.114 -0.049,-0.1389 0,-0.025 -0.012,-0.045 -0.027,-0.045 -0.015,0 -0.035,-0.028 -0.046,-0.063 -0.011,-0.035 -0.073,-0.1224 -0.1379,-0.1954 -0.065,-0.073 -0.1006,-0.1218 -0.079,-0.1086 0.027,0.017 0.035,0.012 0.025,-0.017 -0.01,-0.022 -0.031,-0.037 -0.05,-0.032 -0.022,0.01 -0.029,-0.01 -0.019,-0.037 0.011,-0.03 1e-4,-0.045 -0.032,-0.046 -0.044,-8e-4 -0.043,-0.01 0.01,-0.044 0.055,-0.042 0.055,-0.043 0,-0.043 -0.078,0 -0.1024,-0.03 -0.064,-0.078 0.02,-0.025 0.021,-0.039 0,-0.039 -0.033,0 -0.1004,-0.2568 -0.09,-0.3409 0.01,-0.079 -0.032,-0.159 -0.07,-0.1358 -0.021,0.013 -0.02,0 0,-0.025 0.02,-0.025 0.027,-0.053 0.017,-0.064 -0.031,-0.031 -0.012,-0.5847 0.02,-0.6051 0.019,-0.012 0.021,-0.043 0,-0.089 -0.019,-0.05 -0.015,-0.081 0.01,-0.1058 0.023,-0.023 0.032,-0.083 0.025,-0.1682 -0.01,-0.087 0,-0.133 0.02,-0.133 0.024,0 0.024,-0.011 0,-0.042 -0.026,-0.033 -0.024,-0.047 0.013,-0.068 0.026,-0.015 0.045,-0.032 0.042,-0.039 -0.02,-0.048 0.087,-0.3145 0.2454,-0.6114 0.062,-0.117 0.1658,-0.3625 0.1681,-0.3991 0,-0.018 0.044,-0.084 0.094,-0.1462 0.051,-0.062 0.092,-0.1283 0.093,-0.1475 2e-4,-0.019 0.029,-0.055 0.064,-0.08 0.035,-0.025 0.053,-0.045 0.04,-0.045 -0.013,0 0.023,-0.049 0.08,-0.1089 0.057,-0.06 0.1108,-0.1323 0.1196,-0.1609 0.01,-0.028 0.027,-0.052 0.041,-0.052 0.036,0 0.2283,-0.2129 0.2286,-0.2527 1e-4,-0.018 0.019,-0.041 0.043,-0.05 0.024,-0.01 0.043,-0.035 0.043,-0.058 0,-0.023 0.026,-0.048 0.057,-0.057 0.034,-0.01 0.057,-0.04 0.057,-0.076 0,-0.084 0.093,-0.2305 0.136,-0.2156 0.022,0.01 0.03,0 0.019,-0.032 -0.01,-0.026 0.01,-0.057 0.04,-0.075 0.031,-0.017 0.064,-0.062 0.073,-0.1 0.01,-0.038 0.046,-0.1022 0.082,-0.1429 0.086,-0.097 0.1367,-0.1879 0.1367,-0.2426 0,-0.024 0.017,-0.044 0.038,-0.044 0.043,0 0.1173,-0.2187 0.09,-0.2638 -0.01,-0.016 -0.01,-0.029 0.01,-0.029 0.015,0 0.049,-0.062 0.077,-0.1389 0.028,-0.076 0.062,-0.1537 0.076,-0.1717 0.014,-0.018 0.017,-0.056 0.01,-0.083 -0.011,-0.03 0,-0.061 0.021,-0.076 0.022,-0.014 0.042,-0.042 0.044,-0.063 0,-0.021 0.01,-0.047 0.011,-0.06 0.01,-0.026 0.011,-0.036 0.042,-0.1535 0.013,-0.048 0.036,-0.1048 0.052,-0.1257 0.016,-0.021 0.027,-0.089 0.025,-0.1519 0,-0.063 0.01,-0.1222 0.024,-0.1322 0.016,-0.01 0.021,-0.031 0.012,-0.047 -0.01,-0.016 0,-0.047 0.016,-0.07 0.018,-0.023 0.025,-0.068 0.015,-0.1011 -0.01,-0.033 -0.01,-0.06 0.01,-0.06 0.013,0 0.027,-0.095 0.03,-0.212 0,-0.1166 0.015,-0.2515 0.024,-0.2997 0.023,-0.1175 0.034,-1.0965 0.013,-1.0965 -0.01,0 -0.013,-0.1217 -0.01,-0.2705 0,-0.1488 0.01,-0.2836 0.01,-0.2997 7e-4,-0.037 -0.026,-0.3169 -0.032,-0.3363 0,-0.01 0,-0.025 -9e-4,-0.038 0,-0.013 -0.01,-0.048 -0.025,-0.079 -0.02,-0.039 -0.019,-0.062 0,-0.076 0.023,-0.014 0.022,-0.026 0,-0.042 -0.021,-0.013 -0.035,-0.094 -0.036,-0.2024 -9e-4,-0.099 -0.011,-0.1656 -0.022,-0.1474 -0.011,0.018 -0.02,-0.02 -0.02,-0.086 0,-0.069 0.012,-0.1114 0.028,-0.1014 0.015,0.01 0.012,-0.011 -0.01,-0.047 -0.019,-0.035 -0.04,-0.1454 -0.048,-0.2447 -0.024,-0.3096 -0.061,-0.5088 -0.1079,-0.5899 -0.019,-0.032 -0.052,-0.1144 -0.073,-0.1828 -0.021,-0.068 -0.051,-0.1242 -0.066,-0.1242 -0.015,0 -0.021,-0.018 -0.012,-0.04 0.01,-0.022 -0.016,-0.074 -0.054,-0.1157 -0.038,-0.042 -0.069,-0.096 -0.069,-0.1198 0,-0.024 -0.016,-0.054 -0.036,-0.067 -0.02,-0.013 -0.037,-0.04 -0.039,-0.06 0,-0.02 0,-0.056 -0.01,-0.08 0,-0.024 -0.024,-0.044 -0.048,-0.044 -0.024,0 -0.041,-0.016 -0.037,-0.036 0,-0.02 -0.013,-0.076 -0.038,-0.1243 -0.025,-0.048 -0.04,-0.1022 -0.033,-0.1199 0.01,-0.018 -0.01,-0.049 -0.033,-0.069 -0.024,-0.021 -0.044,-0.06 -0.044,-0.088 0,-0.028 -0.027,-0.075 -0.061,-0.1061 -0.033,-0.031 -0.072,-0.085 -0.085,-0.1215 -0.014,-0.038 -0.049,-0.066 -0.082,-0.066 -0.034,0 -0.052,-0.015 -0.044,-0.036 0.01,-0.02 -0.024,-0.062 -0.071,-0.094 -0.046,-0.032 -0.098,-0.084 -0.1155,-0.117 -0.021,-0.041 -0.027,-0.043 -0.017,-0.01 0.01,0.028 0,0.051 -0.013,0.051 -0.015,0 -0.028,-0.012 -0.028,-0.026 0,-0.026 -0.2465,-0.1559 -0.2707,-0.1422 -0.01,0 -0.032,-0.019 -0.055,-0.051 -0.023,-0.032 -0.053,-0.06 -0.066,-0.061 -0.013,0 -0.082,-0.031 -0.1526,-0.065 -0.071,-0.034 -0.1449,-0.063 -0.1646,-0.063 -0.02,-4e-4 -0.036,-0.011 -0.036,-0.024 0,-0.024 -0.1887,-0.1065 -0.2466,-0.1082 -0.018,-5e-4 -0.05,-0.015 -0.072,-0.033 -0.065,-0.053 -0.3931,-0.1307 -0.5835,-0.1392 -0.063,0 -0.1274,-0.013 -0.1431,-0.022 -0.016,-0.01 -0.054,-0.013 -0.086,-0.01 -0.032,0.01 -0.1023,0.012 -0.1574,0.013 -0.1418,0 -0.4031,0.087 -0.3819,0.1222 0.011,0.019 0,0.018 -0.034,-6e-4 -0.052,-0.03 -0.1115,-0.01 -0.2134,0.071 -0.075,0.06 -0.2861,0.1236 -0.2871,0.086 -4e-4,-0.018 -0.014,-0.01 -0.03,0.017 -0.031,0.054 -0.2394,0.1244 -0.2843,0.096 -0.015,-0.01 -0.035,0.016 -0.045,0.056 -0.01,0.04 -0.026,0.072 -0.037,0.07 -0.049,-0.01 -0.2021,0.044 -0.1898,0.064 0.026,0.044 -0.022,0.1196 -0.065,0.1027 -0.039,-0.015 -0.1503,0.081 -0.1503,0.1303 0,0.018 -0.065,0.106 -0.1395,0.1901 -0.014,0.016 -0.085,0.08 -0.1579,0.1414 -0.073,0.062 -0.1319,0.13 -0.1319,0.1518 0,0.022 -0.023,0.057 -0.052,0.078 -0.029,0.021 -0.061,0.062 -0.071,0.091 -0.011,0.029 -0.032,0.045 -0.048,0.035 -0.016,-0.01 -0.021,0 -0.012,0.027 0.01,0.025 0.01,0.045 -0.01,0.045 -0.014,0 -0.055,0.059 -0.093,0.1316 -0.038,0.072 -0.081,0.1316 -0.096,0.1316 -0.015,0 -0.021,0.017 -0.013,0.038 0.01,0.021 -0.01,0.069 -0.036,0.1068 -0.028,0.038 -0.044,0.093 -0.036,0.1238 0.01,0.033 -0.011,0.083 -0.048,0.1228 -0.034,0.037 -0.082,0.1449 -0.106,0.2398 -0.039,0.1544 -0.1686,0.5997 -0.2067,0.7135 -0.01,0.024 -0.019,0.077 -0.024,0.117 -0.02,0.1573 -0.031,0.2196 -0.038,0.2266 0,0 -0.01,0.017 -0.013,0.029 -0.021,0.076 -0.1119,0.2564 -0.1462,0.2915 -0.023,0.023 -0.043,0.061 -0.044,0.083 -0.01,0.067 -0.011,0.082 -0.052,0.1588 -0.022,0.04 -0.036,0.073 -0.032,0.073 0.017,0 -0.07,0.177 -0.097,0.1957 -0.016,0.011 -0.019,0.03 -0.01,0.042 0.011,0.012 0,0.049 -0.019,0.083 -0.022,0.034 -0.049,0.1204 -0.061,0.1924 -0.011,0.072 -0.041,0.154 -0.065,0.1821 -0.024,0.028 -0.037,0.051 -0.027,0.051 0.039,0 -0.053,0.1941 -0.1156,0.2447 -0.037,0.03 -0.062,0.071 -0.055,0.09 0.01,0.019 -0.011,0.051 -0.041,0.07 -0.03,0.019 -0.054,0.053 -0.054,0.075 0,0.022 -0.02,0.048 -0.045,0.058 -0.025,0.01 -0.038,0.029 -0.029,0.044 0.01,0.014 0,0.042 -0.027,0.062 -0.023,0.02 -0.043,0.059 -0.043,0.086 0,0.028 -0.027,0.076 -0.06,0.1061 -0.081,0.074 -0.2544,0.3438 -0.2546,0.395 -2e-4,0.044 -0.1506,0.1431 -0.2181,0.1431 -0.023,0 -0.069,0.026 -0.1032,0.058 -0.034,0.032 -0.091,0.059 -0.1266,0.059 -0.036,0 -0.079,0.026 -0.096,0.059 -0.017,0.033 -0.045,0.05 -0.063,0.039 -0.017,-0.011 -0.046,0 -0.063,0.024 -0.027,0.038 -0.1265,0.07 -0.2676,0.087 -0.02,0 -0.036,0.022 -0.036,0.043 0,0.021 -0.018,0.031 -0.04,0.022 -0.022,-0.01 -0.049,0 -0.059,0.015 -0.01,0.017 -0.056,0.031 -0.1013,0.031 -0.045,0 -0.09,0.012 -0.098,0.026 -0.023,0.039 -0.1563,0.058 -0.2414,0.034 -0.041,-0.011 -0.1205,-0.01 -0.1757,0 -0.3375,0.076 -0.4956,0.1036 -0.572,0.1013 -0.048,0 -0.086,0 -0.086,0.013 0,0.01 -0.1127,0.017 -0.2505,0.018 -0.1377,9e-4 -0.3438,0.01 -0.458,0.014 -0.1292,0.01 -0.2077,9e-4 -0.2079,-0.018 -3e-4,-0.016 -0.012,-0.012 -0.025,0.01 -0.019,0.03 -0.069,0.036 -0.2071,0.023 -0.2736,-0.026 -0.4343,-0.05 -0.4645,-0.069 -0.015,-0.01 -0.018,0 -0.01,0.017 0.015,0.025 5e-4,0.026 -0.056,0 -0.075,-0.029 -0.3286,-0.011 -0.3565,0.026 -0.01,0.01 -0.053,0.023 -0.1,0.028 -0.047,0.01 -0.092,0.02 -0.1002,0.032 -0.023,0.035 -0.2006,0.026 -0.2011,-0.01 -2e-4,-0.017 -0.012,-0.013 -0.026,0.01 -0.018,0.029 -0.1046,0.045 -0.2912,0.054 -0.1703,0.01 -0.2894,0.029 -0.3318,0.057 -0.048,0.032 -0.066,0.034 -0.066,0.01 0,-0.028 -0.01,-0.027 -0.045,0 -0.037,0.032 -0.049,0.031 -0.069,-7e-4 -0.015,-0.025 -0.042,-0.031 -0.077,-0.016 -0.1062,0.047 -0.1431,0.051 -0.3819,0.05 -0.1361,-9e-4 -0.2511,0.012 -0.2612,0.028 -0.012,0.02 -0.039,0.018 -0.081,0 -0.04,-0.022 -0.1547,-0.03 -0.3185,-0.022 -0.1407,0.01 -0.2558,0 -0.2559,-0.01 0,-0.015 -0.2329,-0.016 -0.9092,0 -0.083,0 -0.1789,0.014 -0.2134,0.026 -0.035,0.013 -0.1041,0.014 -0.1548,0 -0.054,-0.013 -0.1043,-0.01 -0.1217,0.01 -0.02,0.021 -0.043,0.019 -0.074,-0.01 -0.024,-0.021 -0.044,-0.026 -0.044,-0.012 0,0.014 -0.061,0.027 -0.136,0.028 -0.1844,0 -0.551,0.07 -0.551,0.099 0,0.013 -0.026,0.017 -0.057,0.01 -0.032,-0.01 -0.057,0 -0.057,0.011 0,0.015 -0.061,0.026 -0.1359,0.025 -0.075,0 -0.1747,0.01 -0.2219,0.021 -0.047,0.013 -0.1631,0.031 -0.2576,0.04 -0.2736,0.026 -1.3677,0.031 -1.4365,0.01 -0.038,-0.013 -0.066,-0.01 -0.073,0.01 -0.01,0.021 -0.039,0.016 -0.097,-0.014 -0.053,-0.028 -0.1015,-0.036 -0.1262,-0.02 -0.022,0.014 -0.052,0.018 -0.067,0.01 -0.032,-0.02 -0.9564,-0.016 -0.9882,0 -0.012,0.01 -0.196,0.021 -0.409,0.029 -0.213,0.01 -0.4086,0.024 -0.4348,0.034 -0.026,0.01 -0.048,0.01 -0.048,-0.01 0,-0.018 -0.06,-0.014 -0.155,0.01 -0.085,0.02 -0.198,0.033 -0.2505,0.029 -0.053,0 -0.1276,0.01 -0.167,0.029 -0.039,0.02 -0.1166,0.033 -0.1717,0.029 -0.055,0 -0.1161,0 -0.1356,0.021 -0.02,0.016 -0.065,0.022 -0.1004,0.013 -0.036,-0.01 -0.084,0 -0.1068,0.01 -0.025,0.016 -0.054,0.016 -0.073,-2e-4 -0.037,-0.031 -0.1921,-0.024 -0.2166,0.01 -0.01,0.013 -0.3507,0.03 -0.7586,0.038 -0.4078,0.01 -0.8059,0.021 -0.8846,0.028 -0.079,0.01 -0.5231,0.019 -0.9876,0.026 -0.8706,0.013 -1.3526,0.03 -1.7747,0.063 -0.2882,0.023 -0.6288,0.022 -0.6513,-9e-4 -0.01,-0.01 -0.034,-9e-4 -0.057,0.018 -0.031,0.026 -0.046,0.026 -0.062,0 -0.014,-0.024 -0.043,-0.027 -0.088,-0.011 -0.037,0.014 -0.1322,0.014 -0.2125,0 -0.08,-0.013 -0.1911,-0.018 -0.2462,-0.01 -0.2346,0.034 -0.9854,0.064 -2.1897,0.089 -0.8217,0.017 -1.5124,0.035 -1.5242,0.04 0,0 -0.01,0 -0.014,0 0,0 -0.042,0.012 -0.085,0.028 -0.043,0.017 -0.084,0.02 -0.092,0.01 -0.025,-0.041 -0.6676,0 -0.7565,0.053 -0.034,0.019 -0.078,0.024 -0.097,0.011 -0.053,-0.035 -0.3072,-0.037 -0.4359,0 -0.1257,0.033 -0.5289,0.05 -1.5744,0.065 -0.3778,0.01 -0.7835,0.018 -0.9016,0.027 -0.1181,0.01 -0.3886,0.024 -0.6011,0.032 -0.4862,0.017 -0.6393,0.034 -0.7138,0.074 -0.04,0.022 -0.076,0.023 -0.1125,0 -0.03,-0.016 -0.06,-0.022 -0.069,-0.014 -0.013,0.013 -0.1881,0.024 -0.6859,0.043 -0.027,0 -0.057,0.014 -0.066,0.03 -0.01,0.015 -0.028,0.021 -0.042,0.012 -0.061,-0.039 -0.9608,-0.065 -0.9957,-0.029 -0.01,0.01 -0.031,5e-4 -0.051,-0.017 -0.025,-0.021 -0.054,-0.022 -0.087,0 -0.029,0.017 -0.077,0.018 -0.1131,0 -0.035,-0.014 -0.07,-0.018 -0.078,-0.01 -0.01,0.01 -0.099,0.019 -0.2013,0.024 -0.1024,0 -0.201404,0.018 -0.220004,0.03 -0.019,0.012 -0.042,0.01 -0.052,-0.01 -0.019,-0.029 -0.079,-0.031 -1.106,-0.029 -1.0048,0 -1.4231,0.01 -1.6029,0.032 -0.095,0.012 -0.2713,0.026 -0.393,0.032 -0.1216,0.01 -0.2334,0.019 -0.2484,0.028 -0.015,0.01 -0.036,0 -0.046,-0.014 -0.013,-0.021 -0.03,-0.022 -0.054,0 -0.02,0.017 -0.258,0.036 -0.5341,0.044 -0.2744,0.01 -0.5569,0.021 -0.6277,0.029 -0.071,0.01 -0.2641,0.024 -0.4294,0.034 -0.1653,0.01 -0.3146,0.03 -0.3318,0.044 -0.017,0.014 -0.039,0.018 -0.048,0.01 -0.01,-0.01 -0.034,-0.01 -0.055,0.01 -0.021,0.014 -0.1021,0.026 -0.1808,0.028 -0.3335,0.01 -0.517,0.019 -0.5439,0.037 -0.016,0.01 -0.099,0.021 -0.186,0.024 -0.3989,0.014 -0.6035,0.033 -0.6366,0.06 -0.031,0.025 -0.4759,0.054 -1.2526,0.08 -0.1181,0 -0.3177,0.021 -0.4437,0.038 -0.1259,0.017 -0.2483,0.031 -0.2719,0.031 -0.097,-7e-4 -0.8557,0.037 -1.0018,0.05 -0.087,0.01 -0.5954,0.02 -1.1307,0.027 -0.8223,0.011 -1.4312,0.031 -1.4312,0.045 0,0 -0.161,0.01 -0.3578,0.014 -0.1968,0.01 -0.4351,0.019 -0.5295,0.028 -0.094,0.01 -0.2491,0.019 -0.3435,0.021 -0.094,0 -0.1848,0.013 -0.2007,0.026 -0.016,0.013 -0.08,0.023 -0.1431,0.022 -0.063,-4e-4 -0.1207,0 -0.1285,0 -0.014,0 -0.1209,0.019 -0.3149,0.043 -0.055,0.01 -0.1324,0.02 -0.1717,0.03 -0.039,0.01 -0.1102,0.023 -0.1575,0.03 -0.047,0.01 -0.1604,0.025 -0.2515,0.042 -0.091,0.016 -0.1846,0.023 -0.2076,0.014 -0.023,-0.01 -0.042,-0.01 -0.042,0.01 0,0.014 -0.078,0.021 -0.1729,0.015 -0.095,-0.01 -0.1885,0 -0.2076,0.018 -0.019,0.015 -0.067,0.036 -0.1062,0.046 -0.039,0.01 -0.1027,0.061 -0.1408,0.1137 -0.038,0.052 -0.129,0.1363 -0.2022,0.1866 -0.2015,0.1387 -0.5806,0.1806 -0.6946,0.077 -0.028,-0.025 -0.05,-0.035 -0.05,-0.023 0,0.013 -0.017,0.01 -0.038,-0.01 -0.021,-0.018 -0.082,-0.032 -0.136,-0.031 -0.054,8e-4 -0.1302,-0.01 -0.1696,-0.018 -0.095,-0.025 -0.3388,-0.044 -0.7729,-0.058 -0.1967,-0.01 -0.3771,-0.014 -0.4007,-0.016 -0.024,0 -0.2683,0 -0.5439,0 -0.2755,0 -0.5717,0 -0.6583,-0.01 -0.4138,-0.032 -1.0568,-0.044 -1.0707,-0.021 -0.01,0.014 -0.051,0.02 -0.095,0.014 -0.065,-0.01 -0.5216,-0.034 -0.8666,-0.046 -0.039,0 -0.1963,0.01 -0.3488,0.017 -0.1773,0.013 -0.2836,0.01 -0.2951,-0.01 -0.01,-0.016 -0.049,-0.03 -0.086,-0.03 -0.037,0 -0.077,-0.014 -0.087,-0.031 -0.012,-0.02 -0.03,-0.021 -0.052,0 -0.018,0.015 -0.1202,0.024 -0.2265,0.021 -0.1062,0 -0.1932,0 -0.1932,0.016 0,0.013 -0.029,0.017 -0.064,0.01 -0.035,-0.01 -0.1352,-0.02 -0.2218,-0.029 -0.2895,-0.028 -0.4591,-0.061 -0.4917,-0.094 -0.021,-0.022 -0.05,-0.024 -0.081,-0.01 -0.03,0.016 -0.086,0.016 -0.1424,-4e-4 -0.056,-0.016 -0.1126,-0.017 -0.1415,-0.001 -0.028,0.015 -0.094,0.016 -0.1573,0 -0.06,-0.014 -0.128,-0.018 -0.1513,-0.01 -0.023,0.01 -0.053,0 -0.067,-0.024 -0.016,-0.026 -0.085,-0.043 -0.1903,-0.047 -0.091,0 -0.211,-0.018 -0.2665,-0.032 -0.055,-0.014 -0.1263,-0.016 -0.1574,0 -0.031,0.012 -0.064,0.017 -0.073,0.011 -0.029,-0.017 -0.3507,-0.05 -0.4549,-0.047 -0.055,0 -0.1192,-0.014 -0.1431,-0.036 -0.063,-0.056 -0.3326,-0.114 -0.4431,-0.096 -0.053,0.01 -0.1088,0 -0.1266,-0.017 -0.018,-0.018 -0.1,-0.037 -0.1823,-0.042 -0.1989,-0.012 -0.4418,-0.052 -0.5634,-0.092 -0.054,-0.018 -0.1044,-0.026 -0.1118,-0.018 -0.01,0.01 -0.03,-4e-4 -0.051,-0.018 -0.021,-0.017 -0.093,-0.036 -0.1601,-0.041 -0.067,-0.01 -0.1291,-0.012 -0.1369,-0.015 -0.01,0 -0.041,0 -0.074,0 -0.033,0 -0.1407,-0.01 -0.2399,-0.025 -0.1156,-0.019 -0.1987,-0.02 -0.2315,0 -0.033,0.018 -0.055,0.018 -0.061,-9e-4 -0.01,-0.016 -0.1831,-0.035 -0.4048,-0.043 -0.2174,-0.01 -0.4082,-0.022 -0.4239,-0.032 -0.016,-0.01 -0.1083,-0.023 -0.2057,-0.028 -0.2594,-0.015 -0.8359,-0.045 -1.0503,-0.055 -0.1023,0 -0.2433,-0.026 -0.3132,-0.047 -0.073,-0.022 -0.1311,-0.027 -0.1362,-0.012 -0.01,0.031 -0.6791,0.032 -0.853,0 -0.063,-0.011 -0.1534,-0.039 -0.201,-0.061 -0.048,-0.023 -0.1239,-0.048 -0.1695,-0.057 -0.045,-0.01 -0.09,-0.026 -0.099,-0.04 -0.026,-0.039 -0.1963,-0.1018 -0.2253,-0.084 -0.014,0.01 -0.052,-0.013 -0.085,-0.048 -0.032,-0.036 -0.1363,-0.124 -0.2308,-0.1964 -0.095,-0.072 -0.1955,-0.1774 -0.2244,-0.2335 -0.029,-0.056 -0.07,-0.121 -0.092,-0.1443 -0.022,-0.023 -0.065,-0.1025 -0.096,-0.1759 -0.049,-0.1152 -0.057,-0.1981 -0.058,-0.6068 -6e-4,-0.4325 -0.027,-0.6662 -0.087,-0.7614 -0.012,-0.02 -0.028,-0.158 -0.035,-0.307 -0.01,-0.1491 -0.02,-0.324 -0.029,-0.3886 -0.01,-0.065 0,-0.2226 0.013,-0.3509 0.017,-0.1283 0.037,-0.2926 0.046,-0.3649 0.01,-0.072 0.022,-0.1579 0.03,-0.1901 0.042,-0.1644 0.082,-0.2955 0.1001,-0.3216 0.011,-0.016 0.029,-0.082 0.04,-0.1462 0.011,-0.064 0.036,-0.1433 0.056,-0.1755 0.023,-0.037 0.037,-0.1832 0.04,-0.3947 0,-0.3786 0.026,-0.5556 0.068,-0.5556 0.015,0 0.02,-0.026 0.01,-0.057 -0.01,-0.032 0,-0.089 0.029,-0.1298 0.038,-0.06 0.048,-0.1779 0.056,-0.6593 0.01,-0.3227 0,-0.5935 -0.015,-0.6018 -0.013,-0.01 -0.023,-0.1366 -0.021,-0.285 0,-0.2493 -0.013,-0.4596 -0.052,-0.6792 -0.023,-0.1311 -0.1295,-0.4639 -0.1582,-0.4957 -0.014,-0.015 -0.025,-0.05 -0.025,-0.078 0,-0.028 -0.017,-0.068 -0.038,-0.09 -0.061,-0.062 -0.1089,-0.1682 -0.09,-0.1994 0.01,-0.016 0,-0.029 -0.015,-0.029 -0.017,0 -0.045,-0.039 -0.062,-0.088 -0.017,-0.048 -0.042,-0.088 -0.056,-0.088 -0.014,0 -0.026,-0.014 -0.026,-0.03 0,-0.047 -0.3522,-0.4642 -0.5295,-0.6277 -0.087,-0.08 -0.2306,-0.2153 -0.3186,-0.2997 -0.088,-0.084 -0.1824,-0.1535 -0.2096,-0.1535 -0.027,0 -0.064,-0.032 -0.081,-0.072 -0.023,-0.052 -0.049,-0.068 -0.094,-0.06 -0.042,0.01 -0.086,-0.015 -0.1364,-0.074 -0.041,-0.048 -0.088,-0.087 -0.1039,-0.087 -0.016,-3e-4 -0.073,-0.04 -0.1263,-0.088 -0.053,-0.048 -0.1265,-0.087 -0.1627,-0.087 -0.039,0 -0.073,-0.022 -0.083,-0.054 -0.01,-0.034 -0.041,-0.053 -0.081,-0.05 -0.035,0 -0.079,-0.018 -0.098,-0.044 -0.019,-0.026 -0.087,-0.057 -0.1503,-0.067 -0.064,-0.01 -0.1163,-0.035 -0.1171,-0.055 0,-0.042 -0.4739,-0.2867 -0.5498,-0.2855 -0.028,4e-4 -0.072,-0.025 -0.099,-0.058 -0.027,-0.032 -0.076,-0.058 -0.1093,-0.058 -0.033,0 -0.09,-0.033 -0.1274,-0.073 -0.037,-0.04 -0.084,-0.073 -0.1052,-0.073 -0.021,0 -0.038,-0.014 -0.038,-0.032 0,-0.018 -0.018,-0.025 -0.04,-0.017 -0.022,0.01 -0.063,0 -0.092,-0.023 -0.028,-0.021 -0.067,-0.033 -0.086,-0.025 -0.019,0.01 -0.066,-0.01 -0.1046,-0.033 -0.038,-0.026 -0.089,-0.039 -0.1131,-0.03 -0.025,0.01 -0.051,0 -0.061,-0.031 -0.015,-0.038 -0.041,-0.044 -0.1325,-0.028 -0.07,0.012 -0.1145,0.01 -0.1145,-0.01 0,-0.032 -0.1586,-0.097 -0.181,-0.074 -0.031,0.031 -0.1779,0.031 -0.1978,-5e-4 -0.016,-0.025 -0.021,-0.025 -0.021,8e-4 -6e-4,0.043 -0.395,0.028 -0.4389,-0.017 -0.016,-0.017 -0.044,-0.02 -0.06,-0.01 -0.017,0.012 -0.1338,0.018 -0.2597,0.012 z m 57.348304,9.4954 c 0,0.015 -0.019,0.021 -0.043,0.011 -0.024,-0.01 -0.043,-0.022 -0.043,-0.028 0,-0.01 0.019,-0.012 0.043,-0.012 0.024,0 0.043,0.013 0.043,0.028 z m 21.897402,5.1001 c 0,0.01 -0.02,0.019 -0.044,0.029 -0.025,0.01 -0.037,0.01 -0.027,-0.012 0.017,-0.028 0.071,-0.041 0.071,-0.017 z"
       id="path181" />
  </g>
  <path
     style="fill:#e3dbdb;stroke-width:0.277776"
     d="m 246.94292,60.593971 c -3.85414,-0.663532 -7.28201,-3.104567 -9.36891,-6.671734 -0.63649,-1.087962 -1.75763,-3.728102 -2.49141,-5.866977 -0.73379,-2.138876 -1.58413,-4.227552 -1.88965,-4.641502 -0.30552,-0.413951 -0.55549,-0.935606 -0.55549,-1.159235 0,-0.617443 -1.28032,-2.007487 -2.14714,-2.331152 -2.40106,-0.896542 -45.29617,-1.295292 -52.24914,-0.485703 -0.40825,0.04754 -2.67976,0.17416 -5.0478,0.281387 -2.36804,0.107228 -4.93053,0.235988 -5.69441,0.286135 -0.76389,0.05015 -3.63887,0.164443 -6.38885,0.253995 -7.35081,0.239377 -10.13097,0.41044 -14.30547,0.880217 -5.64038,0.634741 -8.26827,0.726774 -10.4166,0.364804 -2.31323,-0.389754 -3.15429,-0.391834 -4.99997,-0.01236 -0.76388,0.157054 -2.12869,0.421866 -3.0329,0.588474 -0.90421,0.166607 -2.40234,0.672882 -3.32918,1.125057 -1.0648,0.519485 -2.14683,0.82932 -2.93928,0.841658 -0.68977,0.01072 -1.49778,0.114855 -1.79557,0.231377 -0.29779,0.116518 -0.92279,0.134341 -1.38888,0.03961 -1.06983,-0.217454 -1.51934,-1.149629 -2.3502,-4.873814 -0.86931,-3.896493 -1.16923,-4.406615 -3.19036,-5.426325 -0.93265,-0.470545 -2.20394,-1.317106 -2.82508,-1.881247 -1.41133,-1.28182 -3.23506,-2.087221 -6.09283,-2.690733 -1.22221,-0.258111 -2.7222,-0.591366 -3.33331,-0.740567 -1.12977,-0.275831 -4.926846,-1.808126 -6.944403,-2.802385 -1.135453,-0.559555 -2.638873,-1.808859 -2.638873,-2.192837 0,-0.11747 -0.351714,-0.81283 -0.781587,-1.545243 -2.298002,-3.915308 -2.614397,-9.310829 -0.721502,-12.3038146 0.9111,-1.4406014 3.656805,-3.9992207 5.350605,-4.9860268 2.338193,-1.3622292 5.79272,-2.2448788 8.85091,-2.2614527 2.5215,-0.013666 2.66754,0.021084 4.98484,1.1861603 4.5751,2.3002376 5.962,4.1659039 6.00491,8.0778258 0.0138,1.258962 -0.18881,3.296596 -0.45027,4.528075 -0.38277,1.802805 -0.42534,2.686407 -0.21851,4.535112 0.40576,3.626721 1.09332,4.037995 7.2424,4.332128 1.90103,0.09093 4.02602,0.293991 4.7222,0.451239 2.62224,0.592295 7.81887,1.036887 12.50035,1.069456 2.66515,0.01854 5.40773,0.15966 6.09463,0.313598 1.06814,0.239374 1.35181,0.20399 1.95979,-0.244451 0.86489,-0.637925 4.72981,-1.080489 11.40527,-1.305989 2.52081,-0.08516 6.33329,-0.335338 8.47217,-0.555963 2.13887,-0.220625 5.90623,-0.404836 8.37191,-0.409358 2.46568,-0.0045 6.71565,-0.130611 9.44439,-0.280198 8.93582,-0.489854 10.43052,-0.549801 18.1557,-0.728154 4.20136,-0.097 7.73167,-0.230957 7.84513,-0.297686 0.17462,-0.102698 8.53055,-0.539768 15.34917,-0.802862 1.06944,-0.04126 4.02197,-0.199987 6.56119,-0.352717 6.96634,-0.419016 7.50816,-0.807533 9.6521,-6.921099 1.3252,-3.778892 2.32358,-5.124095 4.37178,-5.8904223 1.33448,-0.499293 1.58824,-0.5146266 2.74674,-0.1659701 1.8655,0.5614332 3.0505,1.5975244 3.90575,3.4149274 0.70353,1.495014 0.75476,1.862128 0.78522,5.627109 0.0383,4.734888 -0.23361,5.712298 -2.36182,8.488974 -3.34514,4.364411 -3.26772,7.431326 0.27041,10.712375 0.88547,0.821134 2.03811,1.887577 2.56142,2.369874 2.43255,2.241917 4.22898,5.181813 4.55623,7.456377 0.0879,0.611107 0.28062,1.861099 0.42822,2.77776 0.64375,3.998084 0.13218,6.08131 -1.97808,8.055209 -1.67412,1.565949 -3.18263,2.261158 -5.38821,2.483215 -0.91666,0.09229 -2.04165,0.217932 -2.49999,0.279204 -0.45833,0.06127 -1.70832,-0.03924 -2.77776,-0.223349 z"
     id="path252"
     transform="matrix(0.52457852,0,0,0.52457852,-33.184976,14)" />
</svg>
